<svg id="eCalH8uPq7r1" xmlns="http://www.w3.org/2000/svg" xmlns:xlink="http://www.w3.org/1999/xlink" viewBox="0 0 2126.25 2384.24" shape-rendering="geometricPrecision" text-rendering="geometricPrecision"><g id="eCalH8uPq7r2" transform="matrix(.948836 0 0 0.94175 26.646473 85.050354)" clip-path="url(#eCalH8uPq7r5)" clip-rule="evenodd"><g><path d="M-685.236,3722.78c1528.576,0,1528.576,0,3057.156,0c0-657.41,0-657.41,0-1314.83-35.42,0-35.42,0-70.84,0-3.73-499.9-3.73-499.9-7.46-999.8-3.73,499.9-3.73,499.9-7.45,999.8-1155.76,0-1155.76,0-2311.5089,0c0-1206.44,0-1206.44,0-2412.88295C1130.41,-3.91998,1130.41,-3.91998,2286.17,-2.90701c5.12,682.86601,5.12,682.86601,10.25,1365.72701c2.33-721.354,2.33-721.354,4.66-1442.7124c35.42,0,35.42,0,70.84,0c0-489.2626,0-489.2626,0-978.5276-1528.58,0-1528.58,0-3057.156,0c0,1593.736,0,3187.47,0,4781.2Zm424.086-4734.6c.202-3.64-1.144-18.23,4.661-18.23c0,18.23,0,18.23,0,36.462-2.797,0-2.797,0-5.593,0c.311-6.078.595-12.152.932-18.232Zm2313.37-15.2c15.02-7.07,29.82-.01,40.08,11.15-10.23,2.78-15.91-6.08-26.1-6.08-8.88,0-16.82,7.59-25.17,6.08c0-5.98,6.58-8.98,11.19-11.15Zm-2653.105,6.84c0,2.8-4.194,4.4-4.194,6.33c0,5.31,8.744,6.01,2.446,16.274-2.724,4.442-15.094,6.705-17.835,1.218-.432-.866-.01-27.282,1.408-28.632c4.713-4.49,18.175-4.63,18.175,4.81Zm34.952-7.85c0,17.22,0,17.22,0,34.442-2.796,0-2.796,0-5.592,0c0-14.182,0-14.182,0-28.362-4.66,2.03-4.66,2.03-9.321,4.05c4.777-6.49,6.874-10.13,14.913-10.13Zm28.137,4.75c1.769,4.12-1.107,8.08-1.107,12.22c0,4.64,3.425,6.51,2.33,12.661-1.813,10.181-21.903,4.78-21.903-5.321c7.142,5.824,10.095,5.124,18.641,2.03-1.406-4.58-14.761-10.87-8.563-12.6c2.211-.62,4.466-1.06,6.699-1.58-2.489-10.82-8.124-9-14.913-2.03c2.519-6.84,13.745-17.19,18.816-5.38Zm24.058,12.47c3.495-10.43,8.85-26.88,15.438-6.14c2.457,7.74,4.621,15.58,6.932,23.362-8.348,0-4.736-10.132-13.049-10.132-8.247,0-6.647,10.132-14.913,10.132c1.864-5.74,3.676-11.502,5.592-17.222Zm29.826-17.22c9.928.8,13.728,19.16,16.777,26.34c2.538-8.96,3.386-26,14.913-26.34c0,17.22,0,17.22,0,34.442-2.796,0-2.796,0-5.592,0c0-11.142,0-11.142,0-22.282-1.599,4.22-8.61,31.727-15.496,15.38-2.421-5.75-4.582-11.61-6.873-17.41c0,12.16,0,12.16,0,24.312-1.865,0-1.865,0-3.729,0c0-17.222,0-17.222,0-34.442Zm79.517,3.99c4.433-7.78,21.905-3.61,17.417,6.14-5.86-6.37-8.919-4.87-16.777-2.02c4.083,6.65,14.175,7.56,16.777,14.22c4.6,11.773-20.03,20.293-20.505,1.98c6.949,6.66,9.758,4.787,18.641,2.03-4.877-7.95-22.489-10.17-15.553-22.35Zm103.167-3.99c2.796,0,2.796,0,5.592,0-.039,6.86.009,13.72-.116,20.58-.058,3.15-.08,7.923-1.748,10.823-4.857,8.446-15.136,1.286-16.777-5.063c16.606,12.03,13.049-17.11,13.049-26.34Zm84.06,4.75c1.769,4.12-1.107,8.08-1.107,12.22c0,4.64,3.426,6.51,2.33,12.661-1.813,10.181-21.903,4.78-21.903-5.321c7.142,5.824,10.095,5.124,18.641,2.03-1.406-4.58-14.761-10.87-8.563-12.6c2.211-.62,4.466-1.06,6.699-1.58-2.489-10.82-8.124-9-14.913-2.03c2.519-6.84,13.745-17.19,18.816-5.38Zm22.194-4.75c0,17.22,0,17.22,0,34.442-2.796,0-2.796,0-5.592,0c0-14.182,0-14.182,0-28.362-4.66,2.03-4.66,2.03-9.32,4.05c4.776-6.49,6.873-10.13,14.912-10.13Zm2326.414,4.05c-.73,2.78-3.22,9.12-2.56,12.67.99,5.28,7.39,5.99,2.86,13.101-6.17,9.684-20.52,5.431-20.8-5.511c3.14,2.56,20.66,9.96,16.48-1.83-1.81-5.12-9.02-1.75-9.02-8.3c3.72,0,3.72,0,7.45,0c0-5.06,0-5.06,0-10.13-7.45,3.04-7.45,3.04-14.91,6.08c5.92-10.72,9.08-9.11,20.5-6.08Zm28.43,3.8c0,2.8-4.19,4.4-4.19,6.33c0,5.95,9.58,6.28,1.74,17.266-2.69,3.758-14.73,5.026-17.13.226-.43-.866-.01-27.282,1.41-28.632c4.71-4.49,18.17-4.63,18.17,4.81Zm10.72-7.85c3.59-2.67,9.79,4.61,9.79,7.92c0,10.92-11.3,12.5-10.72.19.13-2.72-1.21-6.52.93-8.11Zm13.98,17.22c2.66-4.34,5.35-8.67,8.16-12.91c1.85-2.81,2.71-4.31,5.82-4.31-3.81,12.43-12.6,28.119-24.23,34.442c3.42-5.74,6.77-11.522,10.25-17.222Zm41.94-15.19c4.35.34,21.75,1.69,26.1,2.02-.31,5.07-1.55,25.327-1.86,30.392-4.35-.337-21.75-1.688-26.1-2.026.31-5.066,1.55-25.326,1.86-30.386Zm-2606.031,6.08c2.796,0,2.796,0,5.592,0c0,9.09-2.674,19.53,7.457,22.28.69-7.5-.675-19.1,7.456-22.28c0,13.16,0,13.16,0,26.332-20.811-2.487-18.92-5.665-20.505-26.332Zm27.962,0c1.864,2.02,1.864,2.02,3.728,4.05c14.148-15.38,16.292,15.954,16.777,22.282-2.796,0-2.796,0-5.592,0c0-9.082,2.547-19.342-7.457-22.282-.932,5.34-1.778,10.69-2.796,16.015-.693,3.624-.999,5.888-4.66,6.267c0-13.172,0-13.172,0-26.332Zm63.38,0c1.864,0,1.864,0,3.728,0c.29,32.92,11.185,25.462,11.185,0c8.879,3.54,5.592,18.77,5.592,26.332-24.54-.255-20.505-1.717-20.505-26.332Zm2364.169,6.83c.79.36,8.34,7.08,6.99,7.35-5.37,1.07-10.91-1-16.37-1.33-5.88-.36-24.54,4.57-11.59-4.75c6.04-4.36,14.05-4.4,20.97-1.27Zm126.58,14.944c-2.82,10.517-13.18,1.945-9.61-7.594c4.47-11.93,11.95-1.11,9.61,7.594Zm-2820.698-3.544c5.592,2.024,5.592,2.024,11.185,4.05c2.355-12.8-4.453-13.81-11.185-4.05Zm2760.758,0c5.59,2.024,5.59,2.024,11.18,4.05c2.36-12.8-4.45-13.81-11.18-4.05Zm-68.97,6.076c-2.96,6.429-17.61,5.05-13.05-3.039c3.4-6.027,14.79-.758,13.05,3.039ZM281.308,-919.641c-11.148,12.116-26.722-7.543-16.777-18.234c10.71-11.512,27.235,6.868,16.777,18.234ZM1436.13,-878.11c-3.37-3.267-5.52-5.65-8.16-9.679-4.78-7.309-5.71-24.04,3.68-28.692c2.62-1.293,7.01,3.104,8.44,4.437c10.64,9.916,13.52,17.41,5.36,29.883c7-1.691,9.28-1.961,13.05-8.104c8.09,9.221-1.38,16.596-7.46,26.337-4.97-4.727-9.98-9.405-14.91-14.182Zm-1851.069-36.466c4.663,6.335,5.111,8.452,11.184,4.051c0,4.052,0,4.052,0,8.104c4.661,0,4.661,0,9.321,0-.932,4.052-.932,4.052-1.864,8.104c12.247,3.747,11.498,30.491,0,34.441.932,4.052.932,4.052,1.864,8.104-4.66,0-4.66,0-9.321,0c0,4.051,0,4.051,0,8.103-5.379-5.369-9.024-3.452-9.32,4.052-7.703-2.283-10.009-5.33-14.913,0-2.545-6.716-4.486-5.508-11.185-4.052-.932-5.065-.932-5.065-1.864-10.129-3.728,1.013-3.728,1.013-7.456,2.026c1.356-9,2.559-9.43-5.593-12.156c2.396-6.511,4.098-9.862-1.864-14.182c2.796-1.013,2.796-1.013,5.592-2.026-1.864-5.064-1.864-5.064-3.728-10.129c7.708-2.578,7.081-4.069,5.593-12.156c3.728,1.013,3.728,1.013,7.456,2.026.932-5.065.932-5.065,1.864-10.13c3.728,2.026,3.728,2.026,7.457,4.052c4.882-10.613,9.654-1.425,16.777-8.103Zm2023.499,17.22c6.16-6.837,14.37-11.365,21.55-17.048c17.57,19.099,17.57,19.099,35.15,38.199-8.71,15.49-21.81,28.06-34.55,40.252-4.97-3.099-10.74-5.146-14.93-9.299-8.51-8.441-15.14-18.684-22.71-28.026c5.16-8.026,9.13-17.017,15.49-24.078Zm437.13-8.104c10.19,5.38,18.46,9.974,16.64,12.824-4.14,6.508-14.61,12.149-20.19,15.476-12.49,7.454-15.53,5.029-28.13-2.976-5.14-3.26-15.56-9.06-13.91-13.485c2.03-5.437,9.25-9.36,13.91-11.839c10.85-5.777,20.56-5.877,31.68,0Zm-2304.044,5.065c-6.161,1.86-6.904.6-11.184-4.052c0,20.26,0,20.26,0,40.519-7.429-3.592-5.545-13.764-5.593-21.272-.04-6.416,0-12.831,0-19.247-4.66,3.039-4.66,3.039-9.32,6.078c12.248-18.636,11.356-17.706,26.097-2.026Zm2508.274,48.987c-29.94,29.002-71.8-23.718-37.39-51.013c33.16-26.296,66.7,22.615,37.39,51.013ZM-86.3305,-869.626c-5.5177-5.082-10.7819-11.507-8.1671-19.606c2.4309-7.53,10.8245-20.571,18.8275-15.215-7.4564,8.104-7.4564,8.104-14.9129,16.208c9.0293.084,18.0621-.018,27.088.253c5.107.153,11.7868.834,15.7494,4.68c2.0794,2.018,3.5699,6.647,3.9985,9.185c4.6003,27.234-7.9164,28.56-30.0588,26.4c4.5667-7.364,15.029-2.055,21.4373-8.103c2.1247-2.006,2.8726-3.97,3.2436-7.051c1.674-13.901-9.727-17.402-20.9527-18.274-6.2047-.481-12.4275-.675-18.6412-1.012c4.6497,5.116,12.1318,10.687,13.0488,18.233-5.346,0-5.8187-1.239-10.6604-5.698ZM1612.29,-893.304c-4.39,4.586-15.58,15.051-13.67,19.418c3.54,8.072,15,18.671,19.96,23.696c10.06,10.196,11.49,9.989,20.97,0c4.2-4.429,8.43-8.845,12.41-13.485c2.85-3.324,6.67-6.367,7.72-10.666c1-4.082-11.01-15.893-13.84-18.963-19.31-20.983-15.44-18.925-33.55,0Zm195.03-14.688c4.58-.296,9.16-.533,13.75-.507c21.9.129,12.73,6.747,23.3,18.234c9.06,9.842,16.2,2.738,16.68,21.647.22,8.336,3.68,18.768-1.77,24.949-5.56,6.32-16.52,2.082-24.81,1.9-19.81-.436-9.67-5.677-17.2-19.039-2.43-4.301-7.62-3.115-11.11-5.779-8.79-6.697-9.58-31.103-4.66-39.886c1.37-2.461,2.36-1.295,5.82-1.519ZM84.644,-906.473c3.7433.123,3.9719-.527,6.9904,2.786c17.0466,18.712,12.5296,21.982-3.2622,39.759-1.8641-2.026-1.8641-2.026-3.7282-4.052c7.4565-8.104,7.4565-8.104,14.9129-16.207-9.4371.569-18.8862.958-28.3112,1.709-14.0104,1.117-24.5729,14.899-10.6861,25.924c6.0539,4.807,16.8096,1.125,20.3562,8.833-6.8647,0-15.6024,1.202-21.6121-3.423-8.5717-6.598-14.0689-24.067-3.5722-31.797c3.2084-2.363,12.0775-3.405,14.1161-3.589c9.8806-.891,19.8062-1.139,29.7093-1.709-7.4564-9.117-7.4564-9.117-14.9129-18.234Zm1141.536,9.117c2.96,15.937-12.98,21.151-15.61,35.454-17.77-6.437,15.84-23.87,8.39-34.441-9.63-13.664-17.07,6.078-25.17,6.078.76-19.704,29.57-22.31,32.39-7.091Zm-1641.119,17.22c9.32,0,9.32,0,18.641,0-6.636-14.162-9.996-20.934-25.515-23.045-1.961-.266-8.134-1.356-8.622,2.09-1.749,12.359,15.496,14.843,15.496,20.955Zm2221.099-7.09c-.27,6.113-.15,23.953,10.95,16.714c3.93-2.562,3.01-10.116,6.29-13.675c3.86-4.191,12.38-2.099,13.35-9.153c1.17-8.579-8.7-9.557-14.75-10.094-4.96-.44-11.38-4.625-14.91-1.013-3.97,4.056-.68,11.477-.93,17.221Zm-2401.919-15.195c10.306.305,19.429,13.67,26.098,20.26c5.54-6.69,12.666-19.972,22.369-20.26-.265,10.628-13.364,21.98-18.641,28.363c6.246,6.198,18.11,13.954,18.641,24.311-4.47-4.382-8.738-8.996-13.412-13.148-15.52-13.787-21.713,15.956-35.055,11.123c19.462-24.997,20.55-26.284,0-50.649Zm2223.889,2.026c10.39,8.469,4.94,10.011-5.59,8.104c2.8-4.052,2.8-4.052,5.59-8.104Zm-2063.575,44.571c9.617-15.677,9.336-27.938-1.864-42.545-11.786,16.011-8.968,26.848,1.864,42.545Zm189.674-27.097c.274,5.989.466,11.984.466,17.98c0,5.995-.192,11.991-.466,17.98-.003.068-.365,6.264-1.398,7.344-1.088,1.138-7.092,1.513-7.223,1.52-5.976.297-11.959.506-17.942.506s-11.967-.209-17.943-.506c-.178-.009-6.112-.381-7.223-1.52-1.021-1.047-1.392-6.965-1.398-7.091-.273-5.735-.405-11.478-.466-17.22-.228-21.215-2.899-27.935,18.641-28.363c0,8.906-9.521,4.651-11.418,12.915-2.69,11.72-1.598,23.729-1.631,35.707c26.251,0,54.695.375,42.241-37.642-2.332-7.118-10.214-2.01-10.551-10.98c9.358.125,15.81-1.626,16.311,9.37Zm2461.101,8.863c18.93.202,6.71,12.552,16.78,14.182.04-2.119-.96-8.511,1.63-10.89c4.17-3.831,11.04-.737,11.42-7.344-19.15-.426-6.66-12.543-16.78-14.181c0,18.037-12.55,9.31-13.05,18.233Zm-788.29-7.66c4.29,4.344,8.34,8.925,12.41,13.485c2.23,2.499,7.32,7.5,7.86,11.396.77,5.493-10.77,6.388-13.45,4.685-2.55-1.616-4.7-3.799-7.05-5.698-2.31,4.186-6.52,12.592-10.07,16.612-7.63,8.639-22.47-.328-17.31-11.547c3.31-7.196,11.99-11.24,18.06-15.195-10.02-13.403-9.3-32.852,9.55-13.738Zm-1177.538-2.216c.617,1.788.9,5.486.932,7.091.127,6.329.078,12.662.116,18.993c3.729,0,3.729,0,7.457,0c0,2.026,0,2.026,0,4.052-10.253,0-10.253,0-20.505,0c0-2.026,0-2.026,0-4.052c4.66,0,4.66,0,9.32,0c0-11.143,0-11.143,0-22.286-4.66,2.026-4.66,2.026-9.32,4.052.33-3.516,9.959-13.765,12-7.85Zm23.418-2.279c2.499,8.148-2.216,14.945-5.593,22.285c7.61,0,9.411-.393,11.185-8.104c0,4.052,0,4.052,0,8.104c2.796,0,2.796,0,5.593,0c0,2.026,0,2.026,0,4.052-2.797,0-2.797,0-5.593,0c0,3.039,0,3.039,0,6.078-3.235-7.939-8.81-7.022-16.777-8.104c5.592-12.156,5.592-12.156,11.185-24.311Zm20.855,12.219c-3.157,9.825-10.288-1.111-7.806-7.155c4.168-10.152,10.033.222,7.806,7.155Zm14.563-10.193c2.769,6.018-7.629,12.86-11.185,16.207-4.329,4.075-8.699,8.104-13.048,12.156c12.116-14.182,12.116-14.182,24.233-28.363Zm134.216,4.051c-3.223,8.758-4.539,9.954-13.048,8.104c1.774-9.643,3.715-9.721,13.048-8.104Zm22.37,0c-1.864,5.065-1.864,5.065-3.728,10.13-12.327-5.359-8.727-12.386,3.728-10.13Zm11.185-2.025c5.592,0,5.592,0,11.184,0-.932,6.077-.932,6.077-1.864,12.155-8.401-1.826-9.32-3.359-9.32-12.155Zm1168.801,0c3.73,2.025,3.73,2.025,7.46,4.051-7.13,12.914-9.42,8.701-7.46-4.051Zm196.66,8.103c-1.71,10.638-17.8,8.614-16.77,19.247c1.07,11.134,28.34,7.65,31.99-4.62c4.5-15.172-11.83-35.653-15.22-14.627Zm213.04,5.002c-19.09,13.413-21.1,17.276-40.6,5.128-6.45-4.011-12.66-6.821-14.92-14.182c8.89,2.974,9.55,2.457,16.84,7.344c3.49,2.345,9.63,9.013,14.85,8.864c11.98-.343,19.32-16.208,31.69-16.208c0,4.937-3.35,5.886-7.86,9.054Zm-2486.326,17.284c19.764,2.148,30.008-1.709,35.418-22.286-18.573.29-27.096,4.95-35.418,22.286Zm732.598-16.208c11.828,2.705,11.847,14.182,0,14.182c0-7.091,0-7.091,0-14.182Zm1753.728,15.068c-20.01,14.498-21.62,17.303-41.54,4.178-5.95-3.924-13.98-7.272-13.98-15.194c12.93,7.903,26.27,18.751,41.76,10.758c5.4-2.786,13.71-10.758,21.62-10.758c0,5.721-3.4,7.783-7.86,11.016Zm-1076.32,77.74c-24.113,16.082-47.278-21.59-24.035-38.108c26.84-19.074,46.205,23.322,24.035,38.108ZM-359.906,-530.057c-25.825,13.973-39.117-29.956-17.751-42.137c27.203-15.508,44.17,27.842,17.751,42.137ZM978.29,-532.06c-23.553,15.709-48.516-19.922-24.035-38.108c26.446-19.647,46.205,23.322,24.035,38.108Zm1335.14-.122c-22.32,20.111-50.93-20.927-25.4-38.999c23.45-16.601,45.57,20.817,25.4,38.999ZM-380.453,-564.09c-14.48,19.048,13.221,44.93,27.03,25.324c13.595-19.304-11.918-45.204-27.03-25.324Zm1333.775,1.013c-15.053,18.931,11.308,41.398,26.098,25.324c16.462-17.891-11.054-44.243-26.098-25.324Zm1333.778-2.026c-15.08,16.427,8.54,44.79,26.21,26.654c14.78-15.169-8.42-46.035-26.21-26.654ZM42.0862,-248.126c-7.6299,7.165-19.1818,2.512-22.6863-7.01-3.9971-10.86-1.7542-26.155,6.5244-33.427c21.5982-18.974,29.5982,27.819,16.1619,40.437Zm-59.0366-20.178c5.6129-15.93,10.22525-36.744,19.80627-9.243c3.86949,11.106,7.30113,22.369,10.95173,33.554-11.25953-.374-7.77555-14.083-19.57328-14.181-10.98652-.092-9.76962,11.517-19.57322,14.181c2.7962-8.104,5.5399-16.227,8.3885-24.311Zm44.7388-17.221c-5.6609,5.565-7.0975,21.839-2.9709,29.313c2.9535,5.35,10.8806,8.781,15.0877,3.102c6.939-9.366,3.07-47.341-12.1168-32.415Zm-40.0785,23.299c2.1748,0,10.87403,0,13.048834,0-1.242745-3.715-6.213724-18.571-7.456464-22.286-.93206,3.715-4.66027,18.571-5.59237,22.286ZM5.41903,-155.865c-3.93123,4.629-13.49406,2.149-15.84503-3.039-3.0811-6.798-3.1437-21.944,2.79621-26.337c15.41013-11.396,20.87419,20.163,13.04882,29.376ZM274.784,-187.267c0,17.221,0,17.221,0,34.441-.609-8.555,2.675-38.738-11.185-24.311c2.818-3.828,5.838-10.13,11.185-10.13Zm30.758,31.402c-3.931,4.629-13.494,2.149-15.845-3.039-3.081-6.798-3.144-21.944,2.796-26.337c15.41-11.396,20.874,20.163,13.049,29.376Zm27.379-.506c-3.293,5.727-13.155,4.273-15.554-1.52-2.995-7.234-4.374-20.899,1.224-26.337c15.417-14.978,20.247,17.569,14.33,27.857Zm216.82-16.431c-1.642,5.46-7.861,12.552-10.252,15.924c6.524,0,6.524,0,13.048,0c0,2.026,0,2.026,0,4.052-9.32,0-9.32,0-18.641,0c5.286-7.336,30.888-46.131,0-24.311.62-15.948,20.181-10.085,15.845,4.335Zm27.379,16.431c-3.293,5.727-13.155,4.273-15.553-1.52-2.996-7.234-4.374-20.899,1.223-26.337c15.417-14.978,20.247,17.569,14.33,27.857Zm27.962,0c-3.293,5.727-13.155,4.273-15.554-1.52-2.995-7.234-4.374-20.899,1.224-26.337c15.417-14.978,20.247,17.569,14.33,27.857Zm214.024-12.662c14.046,5.088-.052,26.281-14.913,10.129c1.864-1.013,1.864-1.013,3.728-2.026c0,16.765,29.619-8.103,3.729-8.103c8.268-5.486,9-6.703,5.592-16.208-5.592,3.039-5.592,3.039-11.185,6.078c9.568-13.864,21.947-6.901,13.049,10.13Zm30.175,12.662c-3.293,5.727-13.155,4.273-15.553-1.52-2.996-7.234-4.374-20.899,1.223-26.337c15.417-14.978,20.247,17.569,14.33,27.857Zm27.962,0c-3.293,5.727-13.155,4.273-15.554-1.52-2.995-7.234-4.374-20.899,1.224-26.337c15.417-14.978,20.247,17.569,14.33,27.857ZM1095,-187.267c0,5.048-2.68,22.859,3.72,26.337-1.86,0-1.86,0-3.72,0c0,4.052,0,4.052,0,8.104-1.87,0-1.87,0-3.73,0c0-4.052,0-4.052,0-8.104-7.46,0-7.46,0-14.92,0c3.13-6.301,8.93-26.337,18.65-26.337Zm26.44,30.896c-3.29,5.727-13.15,4.273-15.55-1.52-3-7.234-4.38-20.899,1.22-26.337c15.42-14.978,20.25,17.569,14.33,27.857Zm27.96,0c-3.29,5.727-13.15,4.273-15.55-1.52-2.99-7.234-4.37-20.899,1.22-26.337c15.42-14.978,20.25,17.569,14.33,27.857Zm219.62-30.896c0,2.026,0,2.026,0,4.052-12.21,0-16.36-1.554-16.78,12.156c3.43-1.488,7.24-3.782,11.13-2.786c6.65,1.7,8.21,15.076,2.85,18.993-4.6,3.373-15.52-.326-15.84-6.078c15,12.228,20.51-5.734,12.38-8.792-3.46-1.3-10.4.448-12.38.689c1.62-15.816,3.07-18.234,18.64-18.234Zm24.58,30.896c-3.29,5.727-13.15,4.273-15.55-1.52-3-7.234-4.37-20.899,1.22-26.337c15.42-14.978,20.25,17.569,14.33,27.857Zm27.97,0c-3.3,5.727-13.16,4.273-15.56-1.52-2.99-7.234-4.37-20.899,1.22-26.337c15.42-14.978,20.25,17.569,14.34,27.857Zm213.9-16.968c12.64,6.107,4,25.662-10.13,17.981-10.76-5.846-3.89-46.1,15.84-25.831-1.86,1.013-1.86,1.013-3.73,2.026c0-13.992-13.34,3.521-14.91,6.078c4.16-.754,8.84-2.231,12.93-.254Zm30.29,16.968c-3.29,5.727-13.15,4.273-15.55-1.52-2.99-7.234-4.37-20.899,1.22-26.337c15.42-14.978,20.25,17.569,14.33,27.857Zm27.97,0c-3.3,5.727-13.16,4.273-15.56-1.52-2.99-7.234-4.37-20.899,1.23-26.337c15.41-14.978,20.24,17.569,14.33,27.857Zm219.61-30.896c-6.52,17.221-6.52,17.221-13.05,34.441c4.66-15.194,4.66-15.194,9.32-30.389-8.38,0-8.38,0-16.77,0c10.25-2.026,10.25-2.026,20.5-4.052Zm24.59,30.896c-3.3,5.727-13.16,4.273-15.56-1.52-2.99-7.234-4.37-20.899,1.23-26.337c15.41-14.978,20.24,17.569,14.33,27.857Zm27.96,0c-3.3,5.727-13.16,4.273-15.56-1.52-2.99-7.234-4.37-20.899,1.23-26.337c15.41-14.978,20.24,17.569,14.33,27.857Zm218.22-24.058c0,3.874-2.67,6.958-2.57,10.889.11,3.953,5.5,5.434,5.83,8.61.19,1.849-2.45,2.736-3.73,4.052-6.27,6.461-18.64,4.59-18.64-6.078c0-4.222,4.03-4.176,4.43-7.597.59-5.189-4.14-10.856.23-14.688c3.99-3.497,14.45-3.002,14.45,4.812Zm24.7,25.577c-3.56,4.639-12.34,1.635-14.28-3.039-2.99-7.234-4.38-20.904,1.23-26.337c15.62-15.155,21.07,18.908,13.05,29.376Zm27.96-1.013c-3.93,4.629-13.5,2.149-15.85-3.039-3.08-6.798-3.14-21.944,2.8-26.337c15.41-11.396,20.87,20.163,13.05,29.376ZM-5.76568,-182.202c-8.88362,8.6-1.09758,36.372,9.32059,24.311c5.64407-6.534.04607-33.378-9.32059-24.311Zm300.12268,0c-8.881,8.602-1.097,36.372,9.321,24.311c5.678-6.573.01-33.348-9.321-24.311Zm26.098,1.013c-7.071,9.982,2.012,35.592,10.602,21.589c5.463-8.906-.769-35.471-10.602-21.589Zm244.199,0c-7.071,9.982,2.013,35.592,10.602,21.589c5.463-8.906-.769-35.471-10.602-21.589Zm27.962,0c-7.071,9.982,2.012,35.592,10.602,21.589c5.463-8.906-.769-35.471-10.602-21.589Zm244.199,0c-7.1,10.028,2.14,35.384,10.602,21.589c5.464-8.906-.772-35.473-10.602-21.589Zm27.962,0c-7.071,9.982,2.013,35.592,10.602,21.589c5.463-8.906-.769-35.471-10.602-21.589Zm244.203,0c-7.11,10.041,2.18,35.316,10.6,21.589c5.46-8.906-.77-35.474-10.6-21.589Zm27.96,0c-7.11,10.034,2.1,35.441,10.6,21.589c5.46-8.906-.77-35.473-10.6-21.589Zm244.2,0c-6.72,9.437,1.43,35.289,10.6,21.589c5.89-8.797-.87-35.268-10.6-21.589Zm27.96,0c-6.66,9.352,1.27,35.527,10.6,21.589c5.89-8.797-.86-35.263-10.6-21.589Zm244.2,0c-7.09,10.011,2.11,35.438,10.6,21.589c5.46-8.906-.77-35.472-10.6-21.589Zm27.96,0c-7.09,10.011,2.07,35.503,10.6,21.589c5.47-8.906-.77-35.472-10.6-21.589Zm244.2,0c-7.07,9.982,2.01,35.592,10.6,21.589c5.46-8.906-.77-35.471-10.6-21.589Zm27.96,0c-7.11,10.041,2.18,35.316,10.6,21.589c5.47-8.906-.77-35.474-10.6-21.589Zm218.1-2.026c-7.09,5.084,1.49,15.218,8.16,10.383c7.03-5.094-1.58-15.099-8.16-10.383Zm26.1,2.026c-6.59,9.235,1.12,35.754,10.6,21.589c5.89-8.797-.85-35.257-10.6-21.589Zm27.96-1.013c-8.88,8.602-1.1,36.372,9.32,24.311c5.68-6.573.01-33.348-9.32-24.311Zm-1147.36,19.246c2.17,0,10.87,0,13.05,0-.31-3.376-1.56-16.882-1.87-20.259-1.86,3.377-9.32,16.883-11.18,20.259Zm547.12-2.026c-1.23,10.057,11.6,13.434,13.05,3.039.77-5.593-11.51-15.634-13.05-3.039Zm544.32,2.026c-1.48,7.701,11.82,10.886,12.81,3.293c1.24-9.431-10.94-13.025-12.81-3.293Zm116.51,83.0636c13.63,3.2167,11.04,18.9917,11.12,31.5539.1,14.4682.04,28.937.06,43.40555-5.59,0-5.59,0-11.18,0c0-37.47975,0-37.47975,0-74.95945ZM-101.479,-41.0452c-11.429,7.6641-34.584-6.1456-20.794-17.5749c12.349-10.235,35.1871,7.9233,20.794,17.5749Zm-17.066-15.549c-17.734,9.8786,5.247,17.9333,16.544,12.1556c11.9911-6.1326-7.836-17.0058-16.544-12.1556Zm1086.78,88.128c19.166-3.9252,37.985-10.7358,57.495-11.7757c22.85-1.2173,46.81-2.5481,68.45,5.0648c60.85,21.4033,120.6,47.603,176.12,80.9641c41.83,25.13,79.64,57.663,113.63,93.139c30.65,31.983,60.1,67.04,78.76,107.628c31.2,67.867,38.4,145.568,68.97,213.736c47.49,105.874,112.59,202.516,164.25,306.301c22.05,44.294,46.64,88.762,56.65,137.441c10.57,51.368,12.14,105.618,4.01,157.458-5.13,32.69-28.46,59.42-42.69,89.14c20.51-22.29,20.51-22.29,41.01-44.57c6.6,30.55,3.19,65.44,19.81,91.67c44.21,69.79,110.76,122.16,158.36,189.56c22.41,31.73,42.05,67.41,50.19,105.72c6.83,32.14,1.9,66.79-6.82,98.45-17.96,65.22-48.27,126.15-72.41,189.23c20.51-23.3,20.51-23.3,41.01-46.6c28.35,51.02,59.74,100.37,85.04,153.04c7.24,15.06,11.41,32.08,11.96,48.86c1.57,48.19-3.77,96.36-5.66,144.54c5.5-32.21,14.56-63.99,16.48-96.64c1.54-26.05,3.05-53.72-6.16-78.03-22.99-60.67-79.53-108.26-88.84-172.65-9.82-67.9,27.34-134.61,34.54-202.85c2.48-23.42,2.18-48.31-5.68-70.44-11.05-31.08-29.83-59.07-49.6-85.18-49.31-65.1-110.57-120.38-157.05-187.65-11.35-16.43-12.47-38.75-13.31-58.89-2.51-60.35,6.16-120.85,3.31-181.18-1.37-29.03-3.72-59.414-15.9-85.646-61.86-133.321-144.47-255.872-204.79-389.941-34.4-76.474-42.91-163.623-78.41-239.567-18.61-39.829-51.1-71.498-81.55-102.689-30.01-30.74-62.92-59.044-98.86-82.114-50.63-32.5104-102.9-64.2194-159.5-83.7595-38.4-13.2596-80.41-15.0874-120.87-13.042-15.573.7872-27.964,14.1816-41.945,21.2723ZM742.677,1360.55c77.905,40.94,152.697,88.85,233.714,122.82c34.029,14.27,71.719,22.44,108.429,20.61c30.01-1.49,58.31-16.47,85.21-30.24c32.05-16.4,62.39-36.72,90.41-59.63c32.52-26.6,63.76-55.47,90.41-88.26c20.88-25.7,39.06-54.55,50.97-85.72c14.6-38.23,21.43-79.33,27.55-119.91c8.51-56.43,12.93-113.49,16.23-170.493c4.03-69.584,7.73-139.359,5.76-209.036-1.48-52.389,5.93-109.089-16.09-156.361-22.83-49.025-82.23-70.891-111.01-116.489-32.28-51.151-41.67-114.49-68.95-168.631-10.46-20.764-26.47-38.509-43.34-54.194-22.45-20.868-45.54-43.088-73.67-54.571-56.12-22.904-118.62-25.53-175.256-47.034-10.87-4.127-19.349-16.169-21.838-27.801-4.87-22.7564.621-46.5964.932-69.8946-27.962,4.0518-27.962,4.0518-55.924,8.1037c5.229,22.4169,14.496,44.2311,15.687,67.2509.806,15.582,1.388,35.207-9.843,45.705-40.692,38.037-96.879,55.357-138.196,92.676-38.247,34.546-76.813,72.893-97.866,120.543-55.673,126.004-102.657,257.683-129.193,393.358-4.369,22.338,35.241,31.364,41.871,53.107c23.769,77.953,25.22,161.752,47.551,240.151c33.013,115.91,120.106,220.63,118.082,341.38-1.58,94.32-91.66,163.94-128.002,250.56-27.362,65.22-47.148,133.92-62.371,203.2-5.987,27.25-4.261,56.11-.692,83.8c11.926,92.51,35.852,183.15,47.044,275.76c3.903,32.3,15.043,70.15-1.923,97.63-14.894,24.13-50.092,35.02-77.652,31.27-53.432-7.26-96.592-54.27-149.931-62.23-94.228-14.05-190.651,4.13-285.6314-2.72-9.505-.69-17.0201-10.76-21.4373-19.44-6.6675-13.1-14.9839-29.05-10.3691-43.05c8.3377-25.3,33.7995-41.13,45.9038-64.77c8.375-16.35,13.848-34.91,14.598-53.37c4.027-99.13-4.5637-198.53-.34-297.66c1.509-35.41,8.136-70.69,17.49-104.8c6.174-22.52,15.02-44.98,28.705-63.67c22.372-30.56,51.998-54.71,77.997-82.06c21.68,27.66,21.68,27.66,43.36,55.32-7.977-21.54-19.027-42.13-23.931-64.62-4.387-20.12-7.595-41.53-3.623-61.75c8.9-45.29,34.794-86.16,41.665-131.82c9.966-66.23.338-134.36,8.396-200.87c4.094-33.79,18.549-65.38,27.824-98.07c6.571,15.88,9.281,34.11,19.713,47.63c6.695,8.68,19.169,10.12,28.754,15.17-9.224-14.94-21.908-28.15-27.671-44.82-7.927-22.94-10.63-47.6-12.655-71.85-2.129-25.509-3.238-51.455.247-76.803c3.79-27.559,12.304-54.333,21.391-80.551c60.036-173.208,103.268-354.383,185.89-517.469C582.458,236.319,659.2,166.854,729.628,96.3637c21.041-21.0594,49.923-33.7305,78.293-41.5317c24.613-6.7679,50.953-.6753,76.429-1.0129-31.068-1.3506-64.264-15.7427-93.206-4.0519-45.291,18.2953-83.239,53.5568-117.439,89.1408-55.284,57.522-112.317,116.576-149.013,188.095C460.86,451.411,421.465,587.62,375.504,720.097c-18.924,54.549-34.476,110.552-45.263,167.393-8.957,47.204-5.992,96.159-13.747,143.59-7.462,45.62-25.623,89.07-31.793,134.89-7.547,56.06-.537,113.62-9.19,169.5-4.952,31.98-23.915,60.19-31.252,91.68-7.224,31,2.097,66.53-12.201,94.82-23.932,47.37-71.419,78.52-98.423,124.1-17.878,30.19-31.264,64.78-34.3111,99.97-10.5315,121.64,11.3591,245.51-6.0584,366.32-6.2955,43.66-48.3507,73.94-63.3799,115.28-3.9208,10.79,3.1198,23.64,9.4231,33.16c9.4602,14.29,19.6491,33.88,36.3409,35.96c90.6344,11.27,183.5164-10.77,273.8764,2.64c50.138,7.44,90.778,50.42,140.761,58.88c28.435,4.82,57.981-8.19,84.051-20.81c10.475-5.07,16.798-17.89,19.685-29.42c6.18-24.67,9.616-50.81,6.748-76.11-11.037-97.4-36.645-192.63-48.234-289.95-3.305-27.77-2.522-56.6,3.729-83.83c15.415-67.13,33.366-134.32,60.816-197.27c30.137-69.11,81.821-126.94,110.915-196.52c13.437-32.13,9.787-69.22,14.68-103.82ZM640.559,444.634c11.003-31.304,27.874-60.342,45.815-88.052c15.689-24.233,34.886-45.998,54.542-66.952c18.282-19.49,37.382-38.554,58.973-54.062c23.702-17.024,49.42-31.307,76.04-42.912c22.028-9.603,45.413-16.221,69.005-20.32c19.366-3.364,39.303-3.335,58.896-1.899c26.42,1.935,52.79,5.866,78.6,11.973c36,8.519,70.61,26.714,99.25,50.704c15.75,13.193,30.26,27.993,43.8,43.558c8.55,9.822,17.16,20.172,22.2,32.288c21.39,51.404,29.03,109.862,59.48,156.192c27.74,42.213,71.14,81.145,104.74,115.409-12.81-2.093-27.15.333-38.41-6.28-12.93-7.605-18.27-24.67-30.1-33.985-13.32-10.481-28.37-19.097-44.27-24.564-13.47-4.629-28.1-5.452-42.3-5.192-19.45.356-39.05,2.322-57.96,7.028-36.75,9.145-73.1,20.413-108.39,34.372-6.19,2.45-12.15,7.746-14.35,14.182-2.51,7.343,1.03,15.53,1.55,23.295c40.72,1.343,79.42-18.744,119.34-27.086c21.03-4.393,42.56-6.271,64-6.934c22.35-.692,45.12-1.802,67,2.879c11.85,2.536,21.13,12.156,31.69,18.234-32.25-2.702-64.41-9.133-96.76-8.104-29.15.927-58.5,5.356-86.45,13.928-24.96,7.657-48.5,20.237-70.69,34.269-40.56,25.646-74.93,68.488-121.894,76.588-55.689,9.603-112.453-10.879-168.491-18.019-17.66-2.25-35.73-3.979-53.365-1.527-31.195,4.338-62.033,11.954-92.036,21.746-40.63,13.261-79.561,31.497-119.341,47.245c29.962-99.334,55.505-200.192,89.886-298.002ZM-101.479,254.741c-11.429,7.664-34.551-6.148-20.794-17.575c12.161-10.101,35.4432,7.752,20.794,17.575Zm-17.066-15.549c-16.175,8.895,4.916,18.103,15.435,12.723c13.6443-6.978-6.479-17.648-15.435-12.723Zm17.066,43.912c-11.429,7.664-34.584-6.146-20.794-17.575c12.349-10.235,35.1871,7.923,20.794,17.575Zm-17.066-15.549c-16.335,9.279,6.183,19.291,16.544,12.155c11.7533-8.093-9.941-15.906-16.544-12.155Zm-7.456,33.428c14.913,1.013,14.913,1.013,29.8257,2.026-13.0487,0-13.0487,0-26.0977,0c1.864,4.052,1.864,4.052,3.728,8.103-5.323-.602-5.691-5.332-7.456-10.129Zm24.522,249.544c-11.491,7.706-34.439-6.287-20.794-17.575c12.358-10.223,35.1871,7.923,20.794,17.575Zm-17.066-15.549c-16.348,8.957,4.983,17.69,15.435,12.723c13.4811-6.406-6.075-17.851-15.435-12.723Zm17.066,43.912c-11.429,7.664-34.568-6.126-20.794-17.575c12.122-10.076,35.5431,7.685,20.794,17.575Zm-17.066-15.549c-16.346,8.961,4.983,17.69,15.435,12.723c13.6075-6.466-6.131-17.824-15.435-12.723ZM1331.74,581.574c24.77,2.553,49.42,6.508,73.86,11.396c5.61,1.122,18.84,5.056,19.64,14.118c1.73,19.837-28.05,22.623-30.18,42.165-4.42,40.447-2,81.63-8.4,121.797-3.44,21.641-10.16,43.229-20.88,62.186-7.16,12.651-18.96,22.548-31.25,29.943-22.43,13.499-46.48,24.769-71.53,31.908-23.43,6.679-48.22,11.646-72.41,9.117-19.94-2.084-38.89-11.78-55.98-22.538-16.94-10.66-32.47-24.475-44.5-40.714-25.42-34.328-42.72-74.387-66.89-109.661-5.31-7.742-19.19-11.849-27.955-9.421-7.968,2.207-16.264,4.951-22.602,10.383-7.687,6.588-15.431,14.672-18.175,24.564-12.258,44.191-12.719,91.38-26.145,135.211-6.131,20.018-18.599,37.789-31.76,53.834-8.154,9.942-19.857,16.318-30.932,22.602-11.011,6.248-22.834,11.086-34.894,14.751-20.333,6.179-41.007,11.504-61.982,14.688-13.046,1.981-26.53,2.837-39.557.73-26.65-4.321-53.905-16.872-72.523-36.943-13.014-14.029-24.165-29.832-34.894-45.774-16.745-24.879-36.523-57.422-44.273-88.001-3.02-11.917,3.27-27.269-4.485-36.657-5.894-7.134-18.446.567-27.263-1.772-12.239-3.248-10.922-21.661-2.34-27.604c10.783-7.467,22.078-14.357,34.072-19.517c30.445-13.098,61.455-24.916,92.931-35.12c27.166-8.806,54.702-16.865,82.774-21.839c15.775-2.795,32.097-3.161,48.005-1.332c49.581,5.699,98.204,18.9,147.862,23.848c15.105,1.505,30.553-.951,45.307-4.602c11.469-2.837,22.429-8.144,32.389-14.624c36.64-23.833,68.77-55.02,107.01-76.036c25.51-14.019,54.04-22.084,82.37-28.047c37.76-7.945,77.23-6.99,115.58-3.039Zm-597.451,3.039c-46.006,5.905-71.632,20.642-98.349,61.292-2.966,4.513-4.12,10.092-6.974,14.681-4.473,7.192-10.842,13.072-14.913,20.512-2.847,5.205-7.382,11.287-5.592,16.967c1.072,3.401,6.845-1.391,10.131-2.562c2.131-.76,4.231-1.77,6.012-3.191c8.451-6.743,15.989-14.659,24.576-21.217c23.287-17.782,53.927-28.995,80.914-38.619c12.314-4.391,27.514-9.087,41.027-9.56c29.531-1.035,59.103-.388,88.632-1.461c7.516-.273,13.623-17.43,14.578-21.394c2.041-8.481-12.516-11.824-16.952-12.789-6.156-1.338-12.368-2.552-18.641-3.039-34.718-2.693-69.901-4.054-104.449.38Zm-832.3285,4.052c.9321,11.143.9321,11.143,1.8642,22.285-4.5467-4.446-12.3217-14.414-19.4687-16.26-12.402-3.205-7.148,11.645-2.901,16.26-8.366-4.546-7.789-20.851.932-20.259c7.632.518,14.649,9.499,19.5735,14.182c0-8.104,0-8.104,0-16.208ZM1239.46,624.119c-61.93,13.279-139.03,28.066-168.7,95.219-10.9,24.672,10.17,55.632,22.02,74.769c31.36,50.628,70.16,69.994,129.44,69.325c7.75-.087,15.6-.749,23.07-2.849c53.25-14.972,95.9-49.561,114-104.399c7.04-21.319,7.05-53.13,7.23-73.503.12-14.469,2.04-33.431-6.48-46.974-3.11-4.935-14.21-9.038-18.52-10.069-10.45-2.503-21-4.76-31.69-5.824-27.2-2.711-42.93-1.576-70.37,4.305Zm67.75,6.711c14.76.888,32.1.435,43.17,10.509c2.82,2.571,2.67,7.312,3.26,11.143c1.29,8.376,2.06,16.85,2.33,25.324.51,16.199,1.11,32.455,0,48.622-.45,6.595-2.48,13.027-4.66,19.247-16.23,46.315-44.02,84.457-91.52,99.271-8.61,2.687-17.58,4.323-26.56,5.064-37.95,3.133-86.8-.597-112.88-34.185-9.11-11.731-17.94-23.789-25.35-36.722-10.56-18.414-23.45-38.826-13.22-59.889c30.1-61.971,105.92-73.38,164.21-85.978c19.98-4.32,40.84-3.633,61.22-2.406ZM965.497,955.359c-8.105.25-18.97-7.67-19.971-16.451-2.447-21.446-2.912-43.279-.89-64.771c3.16-33.595,8.066-67.193,16.376-99.846c3.096-12.166,9.016-24.09,17.476-33.175c5.305-5.696,13.813-9.487,21.437-8.61c8.685.999,17.415,6.446,22.605,13.675c21.42,29.816,34.42,65.394,55.69,95.32c12.39,17.431,26.93,34.071,44.58,45.761c20.14,13.333,43.07,23.048,66.57,27.831c20.19,4.112,41.87,3.807,61.75-1.709c32.35-8.977,63.28-23.735,92.27-41.025c14.12-8.422,26.21-20.994,35.18-35.011c9.8-15.302,17.3-32.889,19.88-51.013c6.02-42.141,1.26-85.294,5.64-127.649.78-7.517,4.83-14.696,9.67-20.386c2.61-3.063,7.46-2.743,11.18-4.115c2.49,7.851,6.65,15.338,7.46,23.552c3.72,37.871,7.12,75.973,6.06,114.022-2.21,79.333-8.75,158.51-15.85,237.541-6.46,72.01-12.35,144.27-24.81,215.44-2.27,13-10.78,24.3-18.93,34.51-34.61,43.35-71.59,84.67-108.88,125.61-24.5,26.89-51.64,51.26-84.12,67.55-24.43,12.25-49.55,23.37-75.5,31.72-18.56,5.97-37.9,11.08-57.35,11.02-15.46-.05-30.53-5.89-45.04-11.35-31.138-11.7-61.45-25.68-91.532-40-40.979-19.52-81.692-39.69-121.575-61.48-18.413-10.05-39.747-17.49-53.128-33.93-21.108-25.93-33.556-58.32-47.069-89.14-18.874-43.05-35.292-87.28-49.902-132.05-12.532-38.4-23.047-77.56-31.42-117.14-7.486-35.387-10.719-71.584-16.078-107.375c25.146,29.46,47.077,62.187,75.439,88.381c10.524,9.724,24.967,15.214,38.971,17.284c22.839,3.37,46.41,2.33,69.206-1.33c26.068-4.19,51.684-11.997,76.195-22.032c15.689-6.422,30.602-15.554,43.369-26.914c11.622-10.342,19.089-24.771,28.633-37.156c3.34,9.961,4.788,20.822,10.02,29.882c3.189,5.524,8.306,10.838,14.374,12.369c17.516,4.418,35.877,5.565,53.897,4.852c17.94-.709,35.97-3.627,53.11-9.084c5.3-1.685,8.09-7.788,12.14-11.682-35.71,2.701-71.34,6.997-107.133,8.104ZM-370.201,724.403c-20.505,0-20.505,0-41.01,0c2.853-6.202,38.157-6.202,41.01,0Zm-223.694-2.026c10.331,10.214,20.864,20.215,30.991,30.642c4.832,4.975,4.428,3.739,4.428,7.85-7.457,0-7.457,0-14.913,0c2.762,6.242,6.833,12.193,7.689,18.993c1.385,10.997-6.051,13.208-9.612,2.596-1.949-5.809-3.689-11.691-5.534-17.537-6.524,5.065-6.524,5.065-13.049,10.13c0-26.337,0-26.337,0-52.674Zm1357.078,5.064c-51.921,5.873-97.753,22.057-146.483,43.234-5.719,2.485-10.741,6.614-15.23,11.023-9.019,8.86-1.455,29.667,2.039,37.227c11.808,25.547,24.753,50.56,38.564,75.023c6.627,11.737,24.245,28.381,33.496,36.34c33.097,28.474,71.793,34.856,114.876,30.705c17.144-1.651,35.478-12.596,49.166-21.842c47.032-31.764,68.168-76.011,76.313-132.255c1.534-10.595,1.876-21.393,1.514-32.098-.16-4.742-3.164-21.086-7.764-25.953-11.623-12.297-39.466-16.72-54.218-19.124-10.18-1.66-20.452-3.038-30.758-3.293-20.502-.506-41.131-1.292-61.515,1.013Zm-1127.791,5.065c-26.098,0-26.098,0-52.195,0c3.022-6.57,49.172-6.57,52.195,0ZM825.63,736.558c14.513.931,28.819,4.258,42.992,7.597c9.036,2.129,21.998,7.642,29.187,14.607c13.43,13.014,10.686,34.296,8.277,50.932-9.589,66.198-53.765,135.533-124.486,141.329-59.865,4.907-104.177-16.96-135.174-70.282-8.703-14.971-16.823-30.326-24.159-46.052-5.338-11.442-10.254-23.173-13.806-35.327-.611-2.091.302-4.628,1.631-6.331c3.009-3.854,6.645-7.405,10.896-9.714c46.506-25.272,93.373-38.65,144.991-45.746c19.711-2.71,39.803-2.286,59.651-1.013ZM-360.88,740.61c1.444,21.187,7.611,48.617-20.358,52.836-7.301,1.102-14.73,1.197-22.109,1.168-6.364-.025-12.699-.887-19.049-1.33-3.286-17.858-2.042-35.004.932-52.674c20.154-1.327,40.433-1.369,60.584,0Zm-31.69,34.441c-5.592-4.052-5.592-4.052-11.185-8.104c1.397,2.657,4.295,10.858,8.202,12.318c7.411,2.768,17.896-18.926,17.896-24.473-8.773,0-11.971,13.865-14.913,20.259Zm291.639,70.895c-11.102,9.281-34.91-5.754-21.342-17.208c10.875-9.18,35.2118,5.612,21.342,17.208Zm-17.614-15.182c-16.172,8.901,4.916,18.103,15.435,12.723c13.7874-7.052-6.551-17.613-15.435-12.723Zm17.066,43.912c-11.437,7.669-34.57-6.156-20.794-17.575c12.334-10.223,35.2452,7.885,20.794,17.575Zm-17.066-15.549c-16.382,9.192,6.183,19.291,16.544,12.156c12.0098-8.271-9.049-16.361-16.544-12.156Zm-484.67,7.091c4.773,0,6.974,2.426,10.486,6.078c9.203,9.57,18.374,19.179,27.262,29.059c5.344,5.94,12.583,11.251,12.583,19.563-9.372-.554-20.998-3.231-29.793,2.378-7.265,4.633-11.276,15.855-20.538,15.855c0-36.466,0-36.466,0-72.933Zm503.3114,40.518c-1.8644-1.013-1.8644-1.013-3.7284-2.026c9.1624-6.638,1.533-22.721-5.068-12.788-1.313,1.976-3.704,7.545-4.252,8.737c0-7.272-1.218-8.766-7.457-12.156-2.538,8.275-4.054,11.802,1.864,18.233-13.212-8.615-1.968-29.545,7.457-14.181c13.7367-19.906,13.075,5.963,11.1844,14.181Zm-281.4814,10.13c.19,26.301-2.999,26.1,22.369,26.337-.623,11.158,4.431,38.587-11.185,42.545-1.581-25.785-9.203-51.6-37.282-56.726c6.01-13.064,12.512-12.156,26.098-12.156Zm3.728,2.026c2.796,3.377,13.981,16.883,16.777,20.259-2.796,0-13.981,0-16.777,0c0-3.376,0-16.882,0-20.259Zm3.262,73.947c-.557,12.071-15.396,9.051-23.767,9.121-5.284.04-10.569-.21-15.845-.51-.068-.01-5.641-.43-6.525-1.521-1.859-2.303-1.288-5.872-1.398-8.863-.274-7.509-.417-15.024-.466-22.539-.028-4.348.007-8.7.233-13.042c1.06-20.345.735-22.025,20.272-22.411.156,8.441.157,16.887.467,25.324.416,11.375,22.7,7.056,27.495,7.09-.155,9.117-.045,18.243-.466,27.351Zm-23.767-57.74c3.728,4.052,18.641,20.26,22.369,24.312-3.728,0-18.641,0-22.369,0c0-4.052,0-20.26,0-24.312Zm-160.606,86.521c-1.845,4.65-6.799,5.57-9.728,9.2-2.091,2.6-.088,8.13-3.029,9.63-8.523,4.33-9.605-26.27-7.457-30.39c8.272-15.849,26.422-4.09,20.214,11.56Zm-18.35-3.46c6.525,2.03,6.525,2.03,13.049,4.05c0-7.09,0-7.09,0-14.18-8.702,0-9.992,1.83-13.049,10.13Zm41.943,33.43c-7.861,9.29-14.207-.74-22.369-1.01-5.669-.19-11.043,2.72-16.428,4.56-9.087,3.09-18.024,6.64-27.146,9.62-.335.11-13.679,3.82-15.146,2.03-1.542-1.89,7.231-9.89,8.389-10.64c7.746-5.01,15.807-9.49,24.699-11.9c10.615-2.89,21.761.61,29.36-8.87c13.678-17.05,28.438,4.64,18.641,16.21Zm-6.524-1.01c1.864-7.09,1.864-7.09,3.728-14.18-17.464-3.57-17.206,8.32-3.728,14.18Zm-30.758,8.1c.435,12.78-9.622,27.78-19.573,34.44-3.193-10.41,4.948-39.21,19.573-34.44Zm470.978,83.42c-11.429,7.66-34.588-6.15-20.794-17.58c12.414-10.28,35.2555,7.88,20.794,17.58Zm-298.547-18.59c8.104,0,18.193-3.53,24.233,2.03c1.976,1.81,1.716,9.04,1.748,11.01.126,7.81,1.99,15.86.116,23.43-.654,2.64-6.313-.64-7.792,1.62-6.932,10.59-.223,18.43-18.482,18.54-8.043.04-18.767,4.3-24.057-1.93-5.632-6.63-1.864-17.53-1.864-26.34c0-7.02-3.631-20.32,1.864-26.33c5.186-5.68,17.876-2.03,24.234-2.03Zm281.481,3.04c-17.729,9.89,5.247,17.93,16.544,12.16c12.1347-6.21-7.949-16.95-16.544-12.16Zm-290.802,27.35c2.506-5.45,3.294-8.1,9.321-8.1c0-3.04,0-3.04,0-6.08-8.917,0-9.321,6.83-9.321,14.18Zm39.146-14.18c9.114,1.98,9.711,4.57,11.185,14.18-6.401,0-3.627-8.1-11.185-8.1c0-3.04,0-3.04,0-6.08Zm268.722,30.74c-11.429,7.67-34.587-6.15-20.794-17.57c12.4-10.27,35.0837,7.99,20.794,17.57Zm-17.066-15.55c-17.725,9.9,5.247,17.94,16.544,12.16c12.3009-6.29-8.04-16.91-16.544-12.16Zm-449.252,13.17c2.51-2.09,5.028-4.17,7.631-6.14c6.869-5.19,25.871-13.24,16.754,5.56-5.851,12.07-17.95,23.38-26.249,33-2.084-9.06-7.686-12.63-14.913-18.24c5.592-4.72,11.151-9.49,16.777-14.18Zm1694.487,10.13c-28.77,25.16-57.57,42.91-94.38,53.18-14.54,4.06-29.41,6.76-44.035,10.51-.577.15-1.276.54-1.398,1.14-1.943,9.5,17.743,8.31,21.493,7.16c14.37-4.43,28.69-9.06,42.82-14.25c29.68-10.92,55.43-23.01,78.93-44.51c9-8.23,19.32-15.35,26.39-25.38c1.36-1.94-3.92-2.77-6.18-3.29-1.62-.38-3.4.06-4.92.73-6.64,2.88-13.86,10.46-18.72,14.71ZM-379.521,1162c10.253,10.13,10.253,10.13,20.505,20.26-9.734,3.08-6.515,11.24-5.592,20.26-6.077-.96-6.069-8.9-7.457-14.18-4.66,2.03-4.66,2.03-9.32,4.05.932-15.19.932-15.19,1.864-30.39Zm274.025,18.24c4.66,2.02,4.66,2.02,9.3207,4.05-7.9827,3.35-5.5927,12.43-5.5927,20.26-5.467-3.26-24.233-9.75-24.233-20.26c10.252,0,10.252,0,20.505,0c0-2.03,0-2.03,0-4.05Zm-305.715,4.05c2.796,0,2.796,0,5.592,0c0,7.79,7.457,5.51,7.457,12.15-8.464,0-9.576-4.6-13.049-12.15Zm305.715,16.21c0-7.09,0-7.09,0-14.18-8.388,0-8.388,0-16.777,0c0,7.12,13.307,12.04,16.777,14.18Zm-501.881,5.24c1.314-2.73,3.4-5.69,5.443-7.78c5.678-5.8,25.742-14.24,27.263.64.542,5.3-4.034,8.99-5.243,13.8-1.611,6.42-.813,8.15-6.3,11.39-7.519,4.45-16.259,6.22-24.458,9.12c6.69-9.16,10.05-17.07,20.506-20.26-1.841-5.31-2.337-6.08-7.457-6.08-.219,9.69-10.527,16.25-16.777,22.29c2.004-7.62,3.564-15.91,7.023-23.12ZM2028.92,2193.2c-7.46,27.56-10.61,56.76-22.37,82.69-5.16,11.38-16.48,18.98-26.8,25.7-19.58,12.76-46.79,14.25-69.15,7.91-37.25-10.55-72.96-26.3-110.09-37.32-14.09-4.19-28.61-8.17-43.28-8.21-12.6-.03-25.46,2.78-37,7.98-25.63,11.55-48.08,29.67-73.46,41.8-6.08,2.9-13.77,5.55-19.93,2.81-18.22-8.08-34.89-20.11-49.68-33.71-18.21-16.75-35.42-35.3-48.47-56.54-12.97-21.12-23.26-44.57-28.6-68.94-7.15-32.63-8.26-66.53-8.43-99.98-.13-25.51,2.51-51.17,7.56-76.15c9.72-48.13,29.99-93.9,36.64-142.57c4.75-34.79,3.46-70.82-2.8-105.35-7.55-41.67-19.46-83.18-38.21-120.93-24.08-48.47-73.51-83.54-88.08-135.86-17.68-63.46-16.87-132.46-20.97-197.02-1.34,50.25-4.9,100.74-.47,150.8c1.29,14.54,4.84,28.91,9.56,42.67c20.56,60.06,70.62,105.07,98.84,161.74c15.89,31.93,26.18,67.09,31.93,102.46c4,24.56.44,50.01-3.14,74.64-8.56,58.82-23.54,116.48-33.21,175.12-4.32,26.23-8.31,52.7-8.72,79.3-.43,27.42,1.4,55.04,6.22,82.01c4.32,24.21,8.95,49.35,21.03,70.59c17.24,30.33,41.23,56.3,65.3,81.23c9.37,9.7,20.98,18.48,33.93,21.58c13.83,3.3,28.91,1.03,42.46-3.33c29.02-9.32,55.23-26.29,83.7-37.23c9.69-3.72,20.01-6.88,30.35-6.61c49.85,1.31,93.54,35.79,141.37,50.25c14.54,4.39,30.45,2.91,45.44.67c10.48-1.57,20.64-6.1,29.59-11.91c9.46-6.12,17.81-14.26,24.7-23.3c10.2-13.36,21.99-26.85,26.1-43.3c4.34-17.34-1.24-35.79-1.86-53.69ZM-543.563,1322.05c-9.321-8.1-9.321-8.1-18.642-16.2c16.587-13.52,18.642,2.6,18.642,16.2Zm-18.933-5.7c-2.961-2.7-5.192-4.66-3.437-8.48c8.389,10.13,8.389,10.13,16.777,20.26-4.446-3.92-8.959-7.77-13.34-11.78Zm-9.029-2.4c5.103-.64,6.781,7.96,9.842,12.2c4.516,6.27-.308,15.41-4.474,20.26-3.658,4.27-13.19,17.17-20.281,18.19-1.026.14-3.209-.72-3.961-1.27-15.799-11.6-5.583-22.43,4.893-34.19c4.58-5.14,7.249-14.35,13.981-15.19Zm202.839,27.48c6.232,7.21,4.548,18.92,15.263,19.12-3.729,8.1-3.729,8.1-7.457,16.2-4.508-4.97-10.442-9.21-11.185-16.2c2.797,0,2.797,0,5.593,0-8.512-29.93-25.758-26.87-50.331-14.19c10.44-17.61,33.708-21.61,48.117-4.93Zm-238.432,28.36c-1.746-6.07.862-13.62,2.039-19.37.932,5.06.932,5.06,1.864,10.13c7.257-2.63,9.601,1.11,7.456,8.1c3.729,0,3.729,0,7.457,0-2.906,4.95-16.48,9.26-18.816,1.14Zm186.586-17.35c13.956,15.65.81,10.38,6.525,24.23c4.794,11.62,17.809,17.78,29.593,14.77c7.079-1.81,10.343-8.06,17.942-8.61-.174,5.12-4.433,7.22-8.389,10.13-15.094,11.12-32.842,5.87-43.108-9.12-5.259-7.67-1.913-14.23-11.883-17.22c4.66-7.09,4.66-7.09,9.32-14.18ZM2288.03,1372.7c-16.63,19.01,6.84,45.04,24.23,26.34c15.67-16.84-8.45-44.38-24.23-26.34Zm-2389.509,65.19c-11.429,7.66-34.586-6.15-20.794-17.58c12.386-10.26,35.324,7.83,20.794,17.58Zm-17.066-15.55c-16.346,8.96,4.983,17.69,15.435,12.72c13.657-6.49-6.128-17.83-15.435-12.72Zm17.066,43.91c-11.437,7.67-34.576-6.17-20.794-17.58c12.415-10.28,35.2555,7.88,20.794,17.58Zm-17.066-15.55c-16.393,9.17,6.183,19.29,16.544,12.15c11.7767-8.11-8.818-16.47-16.544-12.15Zm-440.63,7.91c31.114-22.76,5.198,23.13-4.101,31.08-2.539,2.17-6.149-.07-7.958-2.14-3.284-3.77-10.716-6.6-9.612-11.53c1.423-6.35,9.915-8.14,14.913-12.15c2.226-1.79,4.456-3.57,6.758-5.26Zm445.465,20.77c3.014-8.52,32.2614,6.52,10.078,18.93c16.5357-17.97-9.605-25.98-8.097-11.78.305,2.87,2.177,10.35,2.505,11.78-16.059-2.09-16.648-3.52-16.777-20.26c1.472,12.19,1.013,16.06,13.049,16.21-.364-3.07-2.241-10.69-.758-14.88Zm-470.864.7c5.217,3.24,13.095,6.68,13.049,14.18-.017,2.64-.415,7.52-4.136,7.21-1.373-.11-6.31-9.55-12.641-11.27c1.864-5.06,1.864-5.06,3.728-10.12Zm-7.312,13.11c9.425-2.76,14.514,12.92,10.108,19.3-4.713,6.83-13.147,10.63-20.563,5.82-2.842-1.84-8.142-2.37-8.331-5.82-.231-4.23,4.868-6.84,7.457-10.13c3.337-4.24,6.025-7.62,11.329-9.17Zm185.335,42.6c4.084.35,6.898.72,10.253,3.04-4.165,3.96-8.964,3.17-14.913,4.05c9.32,11.14,9.32,11.14,18.641,22.28-9.435-1.19-14.763-11.21-20.505-18.23-1.091,7.34.297,14.02-7.457,14.18.14-21.08-5.459-26.98,13.981-25.32Zm17.709,33.43c10.253,10.13,10.253,10.13,20.506,20.26.497-3.98-.669-15.74,5.592-16.21c0,13.17,0,13.17,0,26.34-12.117-1.02-12.117-1.02-24.234-2.03c3.308-5.63,8.842-5.14,14.913-6.08-5.817-5.71-16.777-12.57-16.777-22.28Zm-188.276,32.41c8.268-.03,27.432-2.86,35.419,2.03c3.65,2.23,1.864,15.4,1.864,18.23-7.003-2.54-3.603-8.77-8.738-12.22-10.267-6.89-42.564-6.15-53.361-.99-6.604,3.15-3.373,10.59-10.602,13.21c2.092-22.73,14.47-20.17,35.418-20.26Zm9.321,30.39c1.289,4.71,2.486,9.45,3.728,14.18-6.313-6.86-9.453-8.1-18.641-8.1-.231,5.86-.29,5.93-5.592,8.1c4.131-13.47,11.025-48.85,20.505-14.18Zm23.243,29.25c-5.733.54-11.489.81-17.243,1.01-4.793.18-9.592.18-14.388.13-8.313-.08-16.626-.21-24.933-.51-14.243-.51-11.418-9.2-11.418-21.78c7.155,2.75,5.593,9.19,5.593,16.21c30.758,0,30.758,0,61.515,0c0-8.1,0-8.1,0-16.21c2.797,0,2.797,0,5.593,0-.025,2.79,2.821,20.44-4.719,21.15Zm443.075,70.38c-11.437,7.66-34.553-6.21-20.794-17.58c12.54-10.36,35.2215,7.9,20.794,17.58Zm-17.066-15.55c-16.346,8.96,4.983,17.69,15.435,12.72c13.657-6.49-6.128-17.83-15.435-12.72Zm17.066,45.93c-11.443,7.68-34.535-6.19-20.794-17.57c12.33-10.22,35.2188,7.9,20.794,17.57Zm-17.066-15.54c-16.346,8.96,4.983,17.69,15.435,12.72c13.657-6.49-6.128-17.83-15.435-12.72Zm-424.599,23.98c1.22,11.86,1.179,23.97-.419,35.78-22.339,3.55-46.634,3.55-68.973,0-3.157-18.3-3.157-38.43,0-56.73c17.952-2.78,66.217-9.92,69.392,20.95Zm430.017,6.15c4.725-11.74,16.9457.4,16.0196,9.05-1.0664,9.96-16.2946,11.41-22.8356,6.97-5.79-3.93-4.155-13.14-4.194-18.8c1.864,1.01,1.864,1.01,3.728,2.02-11.134,7.37,2.817,14.19,9.321,16.21-1.105-4.2-3.897-10.83-2.039-15.45Zm.175,11.4c11.528,1.69,12.983,1.73,14.9125-10.13-10.5155-1.91-11.7305-.25-14.9125,10.13Zm-413.834,38.49c1.553,1.01,7.767,5.06,9.32,6.08-.932,1.69-4.66,8.44-5.592,10.13-1.554-1.02-7.767-5.07-9.321-6.08.932-1.69,4.661-8.44,5.593-10.13Zm-53.496,133.53c-9.188-.29-33.474-6.13-33.186-20.08.122-5.87,8.758-14.47,11.709-18.04c9.87-11.94,21.31-28.55,35.635-35.36c2.583-1.23,6.684,1.44,8.347,2.75c15.413,12.15,20.182,22.82,6.641,38.24-7.9,9-16.078,17.73-24.117,26.59c13.048,0,13.048,0,26.097,0c0,3.04,0,3.04,0,6.08-10.375-.06-20.755.15-31.126-.18Zm8.757-24.13c12.117-11.14,12.117-11.14,24.233-22.29-10.252-11.14-10.252-11.14-20.505-22.28-18.837,20.47-21.113,21.04-3.728,44.57Zm470.046,91.52c-11.467,7.69-34.393-6.32-20.794-17.57c12.319-10.19,35.3354,7.82,20.794,17.57Zm-17.066-15.55c-16.346,8.96,4.983,17.69,15.435,12.73c13.657-6.49-6.128-17.83-15.435-12.73Zm17.066,45.94c-11.437,7.67-34.572-6.16-20.794-17.57c12.349-10.24,35.1872,7.92,20.794,17.57Zm-17.066-15.55c-16.346,8.96,4.983,17.69,15.435,12.72c13.657-6.49-6.128-17.82-15.435-12.72Zm-7.456,25.33c4.971,3.03,24.855,15.19,29.8257,18.23-4.6607-2.36-23.3017-11.82-27.9617-14.18-.311,3.04-1.554,15.19-1.864,18.23c0-3.71,0-18.57,0-22.28Zm-503.661,189.1c10.711-44.31,55.768-56.73,87.963-29.06-2.028,2.14-4.915,6.76-8.855,6.08-7.437-1.28-14.483-4.44-21.903-5.82-10.028-1.88-23.887,1.84-30.525,10.13-8.861,11.06-16.477,24.41-14.913,39.25c1.561,14.8,10.163,22.47-2.097,33.43-8.32-18.32-14.656-33.38-9.67-54.01Zm107.711,12.67c.8,45.42-46.294,84.23-85.924,53.49-5.484-4.25-2.304-12.15,4.194-12.15c4.513,0,8.333,2.56,12.583,3.8c16.454,4.78,30.197-.24,42.872-11.63c10.789-9.68,14.519-26.72,11.187-40.8-1.989-8.4-9.19-17.9-2.796-24.31c11.754-11.78,17.757,24.39,17.884,31.6Zm395.95,162.89c14.913,1.02,14.913,1.02,29.8257,2.03-13.0487,0-13.0487,0-26.0977,0c1.864,4.05,1.864,4.05,3.728,8.1-5.323-.6-5.691-5.33-7.456-10.13Zm20.505,22.29c4.66,2.02,4.66,2.02,9.3207,4.05-8.2597,3.47-5.4747,11.4-5.5927,20.26-5.467-3.26-24.233-9.75-24.233-20.26c10.252,0,10.252,0,20.505,0c0-2.03,0-2.03,0-4.05Zm0,20.26c0-7.09,0-7.09,0-14.18-8.388,0-8.388,0-16.777,0c0,7.12,13.307,12.05,16.777,14.18Zm-5.604,14.67c4.248-1.34,5.891-5.4,10.863-1.75c6.8032,4.99,4.5758,32.21-12.715,13.41-12.958,19.83-11.923-7.07-11.185-14.18c3.349,1.04,9.138,3.75,13.037,2.52Zm2.808,3.56c-4.566,10.61,5.946,17.08,8.6797,8.17c2-6.52-2.1397-23.37-8.6797-8.17Zm-6.525,10.13c1.658-9,.749-10.61-7.456-14.18-1.457,9.5-2.264,11.96,7.456,14.18Zm-241.981,840.69c-26.067,13.45-44.048-26.14-21.791-40.45c24.137-15.51,47.712,27.08,21.791,40.45Zm1334.718-.81c-24.009,15.87-45.779-21.03-24.598-37.61c25.935-20.31,48.438,21.85,24.598,37.61Zm1333.41.88c-22.86,14.91-47.84-23.13-23.3-39.5c27.45-18.32,45.23,25.2,23.3,39.5Zm-2686.191-37.48c-18.16,8.3-6.979,44.24,13.573,35.14c21.403-9.48,9.636-45.74-13.573-35.14Zm1331.912,2.03c-19.525,13.96-1.647,44.47,18.641,30.39c18.786-13.04,2.133-45.25-18.641-30.39Zm1333.779-1.01c-18.98,11.51-3.11,45.73,17.71,31.4c19.47-13.41,2.62-43.74-17.71-31.4ZM734.522,3385.21c3.889-9.3,18.199-11.1,23.418-2.03c2.576,4.48,2.73,10.52,3.378,15.45-1.805-.15-3.662.02-5.417-.44-3.724-.98-2.508-8.9-4.313-11.19-9.645-12.22-11.743,5.77-10.775,11.63-3.728,0-3.728,0-7.456,0c0-4.27-.557-9.3,1.165-13.42Zm73.516-5.38c5.26-6.13,16.35,1.55,19.531,6.53c2.228,3.48,2.202,8.55,2.722,12.27-8.993-2.44-9.7-14.27-14.913-14.18-7.87.14-3.738,14.18-13.049,14.18c1.116-5.46,1.732-14.17,5.709-18.8Zm72.584,18.8c-12.566-.2-7.336-14.18-14.913-14.18-7.528,0-2.491,13.99-14.913,14.18c4.2-27.38,23.735-26.48,29.826,0Zm31.224-2.47c-9.722,9.94-35.526-6.68-18.175-16.77c8.23-4.79,28.157,6.56,18.175,16.77Zm203.654,2.47c-8.96-.96-5.47-14.04-13.05-14.18-5.21-.09-5.92,11.74-14.91,14.18c3.79-28.82,22.36-27.4,27.96,0Zm81.11-13.15c1.64,3.64.91,9.83.91,13.15-3.73,0-3.73,0-7.45,0c0-7.09,0-7.09,0-14.18-8.83,0-8.7,8.1-16.78,8.1c2.32-12.59,15.69-23.99,23.32-7.07Zm-403.602,11.13c-9.34,8.81-31.603-3.87-21.437-15.2c10.305-11.48,32.402,4.85,21.437,15.2Zm212.512-18.24c0,10.13,0,10.13,0,20.26-2.8,0-2.8,0-5.595,0c0-6.08,0-6.08,0-12.15-5.592,3.04-5.592,3.04-11.184,6.07c0-9.53,8.315-14.18,16.779-14.18Zm24.52.38c9.82-2.37,23.36,8.39,13.34,18.17-3.05,2.99-12.45,1.71-15.49,1.71c9.19-3.33,11.05-4.23,9.32-14.18-8.39,3.04-8.39,3.04-16.78,6.08c2.28-4.96,3.84-10.38,9.61-11.78Zm44.45-.38c0,10.13,0,10.13,0,20.26-2.8,0-2.8,0-5.59,0c0-6.08,0-6.08,0-12.15-5.59,3.04-5.59,3.04-11.19,6.07c0-9.53,8.32-14.18,16.78-14.18Zm87.61,0c0,10.13,0,10.13,0,20.26-7.69,0-7.93-2.62-9.32-10.13-2.67,7.27-3.43,10.13-11.18,10.13c5.6-10.15,8.39-20.26,20.5-20.26Zm-385.869,7.09c-5.733,5.09,4.373,13.62,10.253,9.12c7.685-5.88-6.444-12.49-10.253-9.12Zm119.304,9.12c5.592,0,5.592,0,11.185,0-1.585-8.61-2.595-10.13-11.185-10.13c0,5.07,0,5.07,0,10.13Zm481.615,61.67c9.12-4.47,4.65-12.56,17.97-13.05c12.29-.44,9.62,8.96,17.97,13.05c3.87,1.89,13.14,1.12,15.58,1.13c0,3.04,0,3.04,0,6.08-3.73,0-3.73,0-7.45,0-.06,9.94.16,19.89-.18,29.82-.74,21.39-3.45,32.82-25.92,32.99-7.29.05-15.61,2.3-21.81-1.64-2.63-1.67-1.97-6.09-2.19-9.25-.83-11.79-1.07-23.6-1.81-35.39-.39-6.32.16-16.53-7.75-16.53c0-3.04,0-3.04,0-6.08c2.45-.01,11.72.76,15.59-1.13Zm-870.983,9.49c14.846-11.2,28.754-18.23,46.37-8.36c18.649,10.46,24.667,9.54,9.321,24.32c4.66,2.02,4.66,2.02,9.321,4.05-3.729,7.09-3.729,7.09-7.457,14.18c17.833,10.32-8.786,22.19-19.823,24.87-14.297,3.47-30.879-8.96-41.693-14.74c3.728-7.09,3.728-7.09,7.457-14.18-10.692-6.19-7.768-9.66,1.864-16.21-6.006-4.09-13.406-7.86-5.36-13.93Zm879.633-8.36c3.1,0,15.53,0,18.64,0c0-1.35,0-6.75,0-8.1-3.11,0-15.54,0-18.64,0c0,1.35,0,6.75,0,8.1Zm-703.241-5.06c20.449-.11,64.913-5.43,67.193,28.08.9,13.23,10.715,31.84.382,39.79-13.674,10.51-34.176.33-51.222-.71-33.668-2.04-36.804-40.19-28.003-65.13c1.809-5.13,4.75-1.99,11.65-2.03Zm-171.964,19.25c23.571,15.88,29.574,15.75,53.127,0-23.06-14.57-28.74-19.83-50.564-3.55-2.258,1.69-1.978,1.55-2.563,3.55Zm368.955-4.52c.394,4.64,1.753,13.62-1.202,18.16-1.172,1.8-6.094,1.79-7.28,1.8-10.313.11-32.604,1.99-34.115-14.06-.508-5.39-3.61-14.19.794-17.59c8.909-6.89,40.288-6.18,41.803,11.69Zm142.74-11.69c10.26,0,51.27,0,61.52,0c0,1.01,0,5.06,0,6.08-10.25,0-51.26,0-61.52,0c0-1.02,0-5.07,0-6.08Zm-348.585,16.21c7.456,0,7.456,0,14.913,0c0,7.09,0,7.09,0,14.18c7.456,0,7.456,0,14.913,0-.451-20.9-14.491-5.52-14.913-28.37-11.419.26-12.037,3.25-14.913,14.19Zm29.826,0c2.175,0,10.874,0,13.049,0c0-2.37,0-11.82,0-14.19-2.175,0-10.874,0-13.049,0c0,2.37,0,11.82,0,14.19Zm27.962,0c-12.854.24-12.979,1.08-14.913,14.18c7.456,0,7.456,0,14.913,0c0-7.09,0-7.09,0-14.18c7.456,0,7.456,0,14.913,0-2.992-11.1-3.126-13.92-14.913-14.19c0,7.1,0,7.1,0,14.19Zm191.305-3.55c-3.408,23.2-3.408,23.2-6.816,46.41-7.276-2.59-18.558-.61-21.827-7.77-6.234-13.67-1.565-30.15-2.348-45.22c15.495,3.29,15.495,3.29,30.991,6.58Zm319.902,43.81c-8.59,1.32-11.84-5.82-19.08-5.82-5.73,0-9.54,5.7-15.85,6.07-3.63.22-9.01-2.53-11.36-3.98-18.19-11.24-17.48-26.9-15.67-46.66c8.95,2.79,17.8,5.9,26.84,8.36c21.64,5.89,40.1-1.64,60.78-8.36c0,17.71-2.61,46.86-25.66,50.39Zm132.84-20c.63,18.9,7.15,28.36,19.58,28.36s18.95-9.46,19.57-28.36c.31-9.46.62-18.91.93-28.37-6.83,0-34.17,0-41.01,0c.31,9.46.62,18.91.93,28.37Zm6.53-22.29c4.84,0,3.96,9.27,4.14,12.54.57,10.67.97,21.35,1.45,32.03-2.79,0-2.79,0-5.59,0c0-22.28,0-22.28,0-44.57Zm11.18,0c.63,0,3.11,0,3.73,0c0,7.43,0,37.14,0,44.57-.62,0-3.1,0-3.73,0c0-7.43,0-37.14,0-44.57Zm10.26,22.29c.16-3.55-1.42-22.29,4.66-22.29c0,22.29,0,22.29,0,44.57-2.8,0-2.8,0-5.6,0c.32-7.43.6-14.86.94-22.28Zm-381.22-18.24c10.26,0,51.27,0,61.52,0c0,2.03,0,10.13,0,12.16-10.25,0-51.26,0-61.52,0c0-2.03,0-10.13,0-12.16Zm172.44,12.16c-3.11,8.56,16.72,15.82,21.43,12.15c4.76-3.69-17.19-23.88-21.43-12.15Zm38.21,12.15c11.48,0,18.74-2.34,22.37-14.18-11.67-1.81-22.37-.08-22.37,14.18Zm-559.235,4.06c7.456,0,7.456,0,14.913,0c0,7.09,0,7.09,0,14.18c7.456,0,7.456,0,14.913,0c0-7.09,0-7.09,0-14.18c6.524,0,6.524,0,13.049,0c0,7.09,0,7.09,0,14.18c7.456,0,7.456,0,14.913,0c0-7.09,0-7.09,0-14.18c7.456,0,7.456,0,14.913,0c0-7.1,0-7.1,0-14.19-7.457,0-7.457,0-14.913,0c0,7.09,0,7.09,0,14.19-7.457,0-7.457,0-14.913,0c0-7.1,0-7.1,0-14.19-6.525,0-6.525,0-13.049,0c0,7.09,0,7.09,0,14.19-14.913-7.1-14.913-7.1-29.826-14.19c0,7.09,0,7.09,0,14.19Zm207.005-2.54c1.816,1.87,2.476,5.14,2.708,7.6.414,4.38,4.695,11.07.932,13.17-7.893,4.4-17.938.98-26.913,1.33-11.982.46-14.097-.9-14.097-13.49c0-4.28-1.548-9.73,1.864-12.15c8.319-5.92,27.46-4.78,35.506,3.54Zm172.34-1.52c8.1,0,24.18-.7,28.92,8.05c2.26,4.19,1.44,9.47,1.84,14.24-30.76,0-30.76,0-61.52,0c1.85-22.11,8.81-22.29,30.76-22.29Zm-543.387,10.13c26.72,16.31,26.97,15.45,54.059,0-15.361-9.33-14.556,4.3-28.195,3.04-9.825-.91-17.748-11.86-25.864-3.04Z" clip-rule="evenodd" fill="#11055c" stroke-linecap="round" stroke-linejoin="round" stroke-miterlimit="10"/></g><clipPath id="eCalH8uPq7r5"><rect width="2126.25" height="2384.24" rx="0" ry="0" clip-rule="evenodd" stroke-linecap="round" stroke-linejoin="round" stroke-miterlimit="10"/></clipPath></g><script><![CDATA[!function(t,n){"object"==typeof exports&&"undefined"!=typeof module?module.exports=n():"function"==typeof define&&define.amd?define(n):((t="undefined"!=typeof globalThis?globalThis:t||self).__SVGATOR_PLAYER__=t.__SVGATOR_PLAYER__||{},t.__SVGATOR_PLAYER__["5c7f360c"]=n())}(this,(function(){"use strict";function t(t,n){var e=Object.keys(t);if(Object.getOwnPropertySymbols){var r=Object.getOwnPropertySymbols(t);n&&(r=r.filter((function(n){return Object.getOwnPropertyDescriptor(t,n).enumerable}))),e.push.apply(e,r)}return e}function n(n){for(var e=1;e<arguments.length;e++){var r=null!=arguments[e]?arguments[e]:{};e%2?t(Object(r),!0).forEach((function(t){o(n,t,r[t])})):Object.getOwnPropertyDescriptors?Object.defineProperties(n,Object.getOwnPropertyDescriptors(r)):t(Object(r)).forEach((function(t){Object.defineProperty(n,t,Object.getOwnPropertyDescriptor(r,t))}))}return n}function e(t){return(e="function"==typeof Symbol&&"symbol"==typeof Symbol.iterator?function(t){return typeof t}:function(t){return t&&"function"==typeof Symbol&&t.constructor===Symbol&&t!==Symbol.prototype?"symbol":typeof t})(t)}function r(t,n){if(!(t instanceof n))throw new TypeError("Cannot call a class as a function")}function i(t,n){for(var e=0;e<n.length;e++){var r=n[e];r.enumerable=r.enumerable||!1,r.configurable=!0,"value"in r&&(r.writable=!0),Object.defineProperty(t,r.key,r)}}function u(t,n,e){return n&&i(t.prototype,n),e&&i(t,e),t}function o(t,n,e){return n in t?Object.defineProperty(t,n,{value:e,enumerable:!0,configurable:!0,writable:!0}):t[n]=e,t}function a(t){return(a=Object.setPrototypeOf?Object.getPrototypeOf:function(t){return t.__proto__||Object.getPrototypeOf(t)})(t)}function l(t,n){return(l=Object.setPrototypeOf||function(t,n){return t.__proto__=n,t})(t,n)}function s(){if("undefined"==typeof Reflect||!Reflect.construct)return!1;if(Reflect.construct.sham)return!1;if("function"==typeof Proxy)return!0;try{return Boolean.prototype.valueOf.call(Reflect.construct(Boolean,[],(function(){}))),!0}catch(t){return!1}}function f(t,n,e){return(f=s()?Reflect.construct:function(t,n,e){var r=[null];r.push.apply(r,n);var i=new(Function.bind.apply(t,r));return e&&l(i,e.prototype),i}).apply(null,arguments)}function c(t,n){if(n&&("object"==typeof n||"function"==typeof n))return n;if(void 0!==n)throw new TypeError("Derived constructors may only return object or undefined");return function(t){if(void 0===t)throw new ReferenceError("this hasn't been initialised - super() hasn't been called");return t}(t)}function h(t,n,e){return(h="undefined"!=typeof Reflect&&Reflect.get?Reflect.get:function(t,n,e){var r=function(t,n){for(;!Object.prototype.hasOwnProperty.call(t,n)&&null!==(t=a(t)););return t}(t,n);if(r){var i=Object.getOwnPropertyDescriptor(r,n);return i.get?i.get.call(e):i.value}})(t,n,e||t)}function v(t){return function(t){if(Array.isArray(t))return y(t)}(t)||function(t){if("undefined"!=typeof Symbol&&null!=t[Symbol.iterator]||null!=t["@@iterator"])return Array.from(t)}(t)||function(t,n){if(!t)return;if("string"==typeof t)return y(t,n);var e=Object.prototype.toString.call(t).slice(8,-1);"Object"===e&&t.constructor&&(e=t.constructor.name);if("Map"===e||"Set"===e)return Array.from(t);if("Arguments"===e||/^(?:Ui|I)nt(?:8|16|32)(?:Clamped)?Array$/.test(e))return y(t,n)}(t)||function(){throw new TypeError("Invalid attempt to spread non-iterable instance.\nIn order to be iterable, non-array objects must have a [Symbol.iterator]() method.")}()}function y(t,n){(null==n||n>t.length)&&(n=t.length);for(var e=0,r=new Array(n);e<n;e++)r[e]=t[e];return r}Number.isInteger||(Number.isInteger=function(t){return"number"==typeof t&&isFinite(t)&&Math.floor(t)===t}),Number.EPSILON||(Number.EPSILON=2220446049250313e-31);var g=d(Math.pow(10,-6));function d(t){var n=arguments.length>1&&void 0!==arguments[1]?arguments[1]:6;if(Number.isInteger(t))return t;var e=Math.pow(10,n);return Math.round((+t+Number.EPSILON)*e)/e}function p(t,n){var e=arguments.length>2&&void 0!==arguments[2]?arguments[2]:g;return Math.abs(t-n)<e}var m=Math.PI/180;function b(t){return t}function w(t,n,e){var r=1-e;return 3*e*r*(t*r+n*e)+e*e*e}function x(){var t=arguments.length>0&&void 0!==arguments[0]?arguments[0]:0,n=arguments.length>1&&void 0!==arguments[1]?arguments[1]:0,e=arguments.length>2&&void 0!==arguments[2]?arguments[2]:1,r=arguments.length>3&&void 0!==arguments[3]?arguments[3]:1;return t<0||t>1||e<0||e>1?null:p(t,n)&&p(e,r)?b:function(i){if(i<=0)return t>0?i*n/t:0===n&&e>0?i*r/e:0;if(i>=1)return e<1?1+(i-1)*(r-1)/(e-1):1===e&&t<1?1+(i-1)*(n-1)/(t-1):1;for(var u,o=0,a=1;o<a;){var l=w(t,e,u=(o+a)/2);if(p(i,l))break;l<i?o=u:a=u}return w(n,r,u)}}function A(){return 1}function k(t){return 1===t?1:0}function _(){var t=arguments.length>0&&void 0!==arguments[0]?arguments[0]:1,n=arguments.length>1&&void 0!==arguments[1]?arguments[1]:0;if(1===t){if(0===n)return k;if(1===n)return A}var e=1/t;return function(t){return t>=1?1:(t+=n*e)-t%e}}var S=Math.sin,O=Math.cos,j=Math.acos,M=Math.asin,P=Math.tan,E=Math.atan2,I=Math.PI/180,R=180/Math.PI,F=Math.sqrt,N=function(){function t(){var n=arguments.length>0&&void 0!==arguments[0]?arguments[0]:1,e=arguments.length>1&&void 0!==arguments[1]?arguments[1]:0,i=arguments.length>2&&void 0!==arguments[2]?arguments[2]:0,u=arguments.length>3&&void 0!==arguments[3]?arguments[3]:1,o=arguments.length>4&&void 0!==arguments[4]?arguments[4]:0,a=arguments.length>5&&void 0!==arguments[5]?arguments[5]:0;r(this,t),this.m=[n,e,i,u,o,a],this.i=null,this.w=null,this.s=null}return u(t,[{key:"determinant",get:function(){var t=this.m;return t[0]*t[3]-t[1]*t[2]}},{key:"isIdentity",get:function(){if(null===this.i){var t=this.m;this.i=1===t[0]&&0===t[1]&&0===t[2]&&1===t[3]&&0===t[4]&&0===t[5]}return this.i}},{key:"point",value:function(t,n){var e=this.m;return{x:e[0]*t+e[2]*n+e[4],y:e[1]*t+e[3]*n+e[5]}}},{key:"translateSelf",value:function(){var t=arguments.length>0&&void 0!==arguments[0]?arguments[0]:0,n=arguments.length>1&&void 0!==arguments[1]?arguments[1]:0;if(!t&&!n)return this;var e=this.m;return e[4]+=e[0]*t+e[2]*n,e[5]+=e[1]*t+e[3]*n,this.w=this.s=this.i=null,this}},{key:"rotateSelf",value:function(){var t=arguments.length>0&&void 0!==arguments[0]?arguments[0]:0;if(t%=360){var n=S(t*=I),e=O(t),r=this.m,i=r[0],u=r[1];r[0]=i*e+r[2]*n,r[1]=u*e+r[3]*n,r[2]=r[2]*e-i*n,r[3]=r[3]*e-u*n,this.w=this.s=this.i=null}return this}},{key:"scaleSelf",value:function(){var t=arguments.length>0&&void 0!==arguments[0]?arguments[0]:1,n=arguments.length>1&&void 0!==arguments[1]?arguments[1]:1;if(1!==t||1!==n){var e=this.m;e[0]*=t,e[1]*=t,e[2]*=n,e[3]*=n,this.w=this.s=this.i=null}return this}},{key:"skewSelf",value:function(t,n){if(n%=360,(t%=360)||n){var e=this.m,r=e[0],i=e[1],u=e[2],o=e[3];t&&(t=P(t*I),e[2]+=r*t,e[3]+=i*t),n&&(n=P(n*I),e[0]+=u*n,e[1]+=o*n),this.w=this.s=this.i=null}return this}},{key:"resetSelf",value:function(){var t=arguments.length>0&&void 0!==arguments[0]?arguments[0]:1,n=arguments.length>1&&void 0!==arguments[1]?arguments[1]:0,e=arguments.length>2&&void 0!==arguments[2]?arguments[2]:0,r=arguments.length>3&&void 0!==arguments[3]?arguments[3]:1,i=arguments.length>4&&void 0!==arguments[4]?arguments[4]:0,u=arguments.length>5&&void 0!==arguments[5]?arguments[5]:0,o=this.m;return o[0]=t,o[1]=n,o[2]=e,o[3]=r,o[4]=i,o[5]=u,this.w=this.s=this.i=null,this}},{key:"recomposeSelf",value:function(){var t=arguments.length>0&&void 0!==arguments[0]?arguments[0]:null,n=arguments.length>1&&void 0!==arguments[1]?arguments[1]:null,e=arguments.length>2&&void 0!==arguments[2]?arguments[2]:null,r=arguments.length>3&&void 0!==arguments[3]?arguments[3]:null,i=arguments.length>4&&void 0!==arguments[4]?arguments[4]:null;return this.isIdentity||this.resetSelf(),t&&(t.x||t.y)&&this.translateSelf(t.x,t.y),n&&this.rotateSelf(n),e&&(e.x&&this.skewSelf(e.x,0),e.y&&this.skewSelf(0,e.y)),!r||1===r.x&&1===r.y||this.scaleSelf(r.x,r.y),i&&(i.x||i.y)&&this.translateSelf(i.x,i.y),this}},{key:"decompose",value:function(){var t=arguments.length>0&&void 0!==arguments[0]?arguments[0]:0,n=arguments.length>1&&void 0!==arguments[1]?arguments[1]:0,e=this.m,r=e[0]*e[0]+e[1]*e[1],i=[[e[0],e[1]],[e[2],e[3]]],u=F(r);if(0===u)return{origin:{x:d(e[4]),y:d(e[5])},translate:{x:d(t),y:d(n)},scale:{x:0,y:0},skew:{x:0,y:0},rotate:0};i[0][0]/=u,i[0][1]/=u;var o=e[0]*e[3]-e[1]*e[2]<0;o&&(u=-u);var a=i[0][0]*i[1][0]+i[0][1]*i[1][1];i[1][0]-=i[0][0]*a,i[1][1]-=i[0][1]*a;var l=F(i[1][0]*i[1][0]+i[1][1]*i[1][1]);if(0===l)return{origin:{x:d(e[4]),y:d(e[5])},translate:{x:d(t),y:d(n)},scale:{x:d(u),y:0},skew:{x:0,y:0},rotate:0};i[1][0]/=l,i[1][1]/=l,a/=l;var s=0;return i[1][1]<0?(s=j(i[1][1])*R,i[0][1]<0&&(s=360-s)):s=M(i[0][1])*R,o&&(s=-s),a=E(a,F(i[0][0]*i[0][0]+i[0][1]*i[0][1]))*R,o&&(a=-a),{origin:{x:d(e[4]),y:d(e[5])},translate:{x:d(t),y:d(n)},scale:{x:d(u),y:d(l)},skew:{x:d(a),y:0},rotate:d(s)}}},{key:"clone",value:function(){var t=this.m;return new this.constructor(t[0],t[1],t[2],t[3],t[4],t[5])}},{key:"toString",value:function(){var t=arguments.length>0&&void 0!==arguments[0]?arguments[0]:" ";if(null===this.s){var n=this.m.map((function(t){return d(t)}));1===n[0]&&0===n[1]&&0===n[2]&&1===n[3]?this.s="translate("+n[4]+t+n[5]+")":this.s="matrix("+n.join(t)+")"}return this.s}}],[{key:"create",value:function(t){return t?Array.isArray(t)?f(this,v(t)):t instanceof this?t.clone():(new this).recomposeSelf(t.origin,t.rotate,t.skew,t.scale,t.translate):new this}}]),t}();function T(t,n,e){return t>=.5?e:n}function q(t,n,e){return 0===t||n===e?n:t*(e-n)+n}function B(t,n,e){var r=q(t,n,e);return r<=0?0:r}function L(t,n,e){var r=q(t,n,e);return r<=0?0:r>=1?1:r}function C(t,n,e){return 0===t?n:1===t?e:{x:q(t,n.x,e.x),y:q(t,n.y,e.y)}}function D(t,n,e){var r=function(t,n,e){return Math.round(q(t,n,e))}(t,n,e);return r<=0?0:r>=255?255:r}function z(t,n,e){return 0===t?n:1===t?e:{r:D(t,n.r,e.r),g:D(t,n.g,e.g),b:D(t,n.b,e.b),a:q(t,null==n.a?1:n.a,null==e.a?1:e.a)}}function V(t,n){for(var e=[],r=0;r<t;r++)e.push(n);return e}function G(t,n){if(--n<=0)return t;var e=(t=Object.assign([],t)).length;do{for(var r=0;r<e;r++)t.push(t[r])}while(--n>0);return t}var Y,$=function(){function t(n){r(this,t),this.list=n,this.length=n.length}return u(t,[{key:"setAttribute",value:function(t,n){for(var e=this.list,r=0;r<this.length;r++)e[r].setAttribute(t,n)}},{key:"removeAttribute",value:function(t){for(var n=this.list,e=0;e<this.length;e++)n[e].removeAttribute(t)}},{key:"style",value:function(t,n){for(var e=this.list,r=0;r<this.length;r++)e[r].style[t]=n}}]),t}(),U=/-./g,Q=function(t,n){return n.toUpperCase()};function H(t){return"function"==typeof t?t:T}function J(t){return t?"function"==typeof t?t:Array.isArray(t)?function(t){var n=arguments.length>1&&void 0!==arguments[1]?arguments[1]:b;if(!Array.isArray(t))return n;switch(t.length){case 1:return _(t[0])||n;case 2:return _(t[0],t[1])||n;case 4:return x(t[0],t[1],t[2],t[3])||n}return n}(t,null):function(t,n){var e=arguments.length>2&&void 0!==arguments[2]?arguments[2]:b;switch(t){case"linear":return b;case"steps":return _(n.steps||1,n.jump||0)||e;case"bezier":case"cubic-bezier":return x(n.x1||0,n.y1||0,n.x2||0,n.y2||0)||e}return e}(t.type,t.value,null):null}function Z(t,n,e){var r=arguments.length>3&&void 0!==arguments[3]&&arguments[3],i=n.length-1;if(t<=n[0].t)return r?[0,0,n[0].v]:n[0].v;if(t>=n[i].t)return r?[i,1,n[i].v]:n[i].v;var u,o=n[0],a=null;for(u=1;u<=i;u++){if(!(t>n[u].t)){a=n[u];break}o=n[u]}return null==a?r?[i,1,n[i].v]:n[i].v:o.t===a.t?r?[u,1,a.v]:a.v:(t=(t-o.t)/(a.t-o.t),o.e&&(t=o.e(t)),r?[u,t,e(t,o.v,a.v)]:e(t,o.v,a.v))}function K(t,n){var e=arguments.length>2&&void 0!==arguments[2]?arguments[2]:null;return t&&t.length?"function"!=typeof n?null:("function"!=typeof e&&(e=null),function(r){var i=Z(r,t,n);return null!=i&&e&&(i=e(i)),i}):null}function W(t,n){return t.t-n.t}function X(t,n,r,i,u){var o,a="@"===r[0],l="#"===r[0],s=Y[r],f=T;switch(a?(o=r.substr(1),r=o.replace(U,Q)):l&&(r=r.substr(1)),e(s)){case"function":if(f=s(i,u,Z,J,r,a,n,t),l)return f;break;case"string":f=K(i,H(s));break;case"object":if((f=K(i,H(s.i),s.f))&&"function"==typeof s.u)return s.u(n,f,r,a,t)}return f?function(t,n,e){if(arguments.length>3&&void 0!==arguments[3]&&arguments[3])return t instanceof $?function(r){return t.style(n,e(r))}:function(r){return t.style[n]=e(r)};if(Array.isArray(n)){var r=n.length;return function(i){var u=e(i);if(null==u)for(var o=0;o<r;o++)t[o].removeAttribute(n);else for(var a=0;a<r;a++)t[a].setAttribute(n,u)}}return function(r){var i=e(r);null==i?t.removeAttribute(n):t.setAttribute(n,i)}}(n,r,f,a):null}function tt(t,n,r,i){if(!i||"object"!==e(i))return null;var u=null,o=null;return Array.isArray(i)?o=function(t){if(!t||!t.length)return null;for(var n=0;n<t.length;n++)t[n].e&&(t[n].e=J(t[n].e));return t.sort(W)}(i):(o=i.keys,u=i.data||null),o?X(t,n,r,o,u):null}function nt(t,n,e){if(!e)return null;var r=[];for(var i in e)if(e.hasOwnProperty(i)){var u=tt(t,n,i,e[i]);u&&r.push(u)}return r.length?r:null}function et(t,n){if(!n.settings.duration||n.settings.duration<0)return null;var e,r,i,u,o,a=function(t,n){if(!n)return null;var e=[];if(Array.isArray(n))for(var r=n.length,i=0;i<r;i++){var u=n[i];if(2===u.length){var o=null;if("string"==typeof u[0])o=t.getElementById(u[0]);else if(Array.isArray(u[0])){o=[];for(var a=0;a<u[0].length;a++)if("string"==typeof u[0][a]){var l=t.getElementById(u[0][a]);l&&o.push(l)}o=o.length?1===o.length?o[0]:new $(o):null}if(o){var s=nt(t,o,u[1]);s&&(e=e.concat(s))}}}else for(var f in n)if(n.hasOwnProperty(f)){var c=t.getElementById(f);if(c){var h=nt(t,c,n[f]);h&&(e=e.concat(h))}}return e.length?e:null}(t,n.elements);return a?(e=a,r=n.settings,i=r.duration,u=e.length,o=null,function(t,n){var a=r.iterations||1/0,l=(r.alternate&&a%2==0)^r.direction>0?i:0,s=t%i,f=1+(t-s)/i;n*=r.direction,r.alternate&&f%2==0&&(n=-n);var c=!1;if(f>a)s=l,c=!0,-1===r.fill&&(s=r.direction>0?0:i);else if(n<0&&(s=i-s),s===o)return!1;o=s;for(var h=0;h<u;h++)e[h](s);return c}):null}function rt(t,n){if(Y=n,!t||!t.root||!Array.isArray(t.animations))return null;var e=function(t){for(var n=document.getElementsByTagName("svg"),e=0;e<n.length;e++)if(n[e].id===t.root&&!n[e].svgatorAnimation)return n[e].svgatorAnimation=!0,n[e];return null}(t);if(!e)return null;var r=t.animations.map((function(t){return et(e,t)})).filter((function(t){return!!t}));return r.length?{svg:e,animations:r,animationSettings:t.animationSettings,options:t.options||void 0}:null}function it(t){return+("0x"+(t.replace(/[^0-9a-fA-F]+/g,"")||27))}function ut(t,n,e){return!t||!e||n>t.length?t:t.substring(0,n)+ut(t.substring(n+1),e,e)}function ot(t){var n=arguments.length>1&&void 0!==arguments[1]?arguments[1]:27;return!t||t%n?t%n:ot(t/n,n)}function at(t,n,e){if(t&&t.length){var r=it(e),i=it(n),u=ot(r)+5,o=ut(t,ot(r,5),u);return o=o.replace(/\x7c$/g,"==").replace(/\x2f$/g,"="),o=function(t,n,e){var r=+("0x"+t.substring(0,4));t=t.substring(4);for(var i=n%r+e%27,u=[],o=0;o<t.length;o+=2)if("|"!==t[o]){var a=+("0x"+t[o]+t[o+1])-i;u.push(a)}else{var l=+("0x"+t.substring(o+1,o+1+4))-i;o+=3,u.push(l)}return String.fromCharCode.apply(String,u)}(o=(o=atob(o)).replace(/[\x41-\x5A]/g,""),i,r),o=JSON.parse(o)}}var lt=[{key:"alternate",def:!1},{key:"fill",def:1},{key:"iterations",def:0},{key:"direction",def:1},{key:"speed",def:1},{key:"fps",def:100}],st=function(){function t(n,e){var i=this,u=arguments.length>2&&void 0!==arguments[2]?arguments[2]:null;r(this,t),this._id=0,this._running=!1,this._rollingBack=!1,this._animations=n,this._settings=e,(!u||u<"2022-05-02")&&delete this._settings.speed,lt.forEach((function(t){i._settings[t.key]=i._settings[t.key]||t.def})),this.duration=e.duration,this.offset=e.offset||0,this.rollbackStartOffset=0}return u(t,[{key:"alternate",get:function(){return this._settings.alternate}},{key:"fill",get:function(){return this._settings.fill}},{key:"iterations",get:function(){return this._settings.iterations}},{key:"direction",get:function(){return this._settings.direction}},{key:"speed",get:function(){return this._settings.speed}},{key:"fps",get:function(){return this._settings.fps}},{key:"maxFiniteDuration",get:function(){return this.iterations>0?this.iterations*this.duration:this.duration}},{key:"_apply",value:function(t){for(var n=arguments.length>1&&void 0!==arguments[1]?arguments[1]:{},e=this._animations,r=e.length,i=0,u=0;u<r;u++)n[u]?i++:(n[u]=e[u](t,1),n[u]&&i++);return i}},{key:"_rollback",value:function(t){var n=this,e=1/0,r=null;this.rollbackStartOffset=t,this._rollingBack=!0,this._running=!0;this._id=window.requestAnimationFrame((function i(u){if(n._rollingBack){null==r&&(r=u);var o=Math.round(t-(u-r)*n.speed);if(o>n.duration&&e!==1/0){var a=!!n.alternate&&o/n.duration%2>1,l=o%n.duration;o=(l+=a?n.duration:0)||n.duration}var s=(n.fps?1e3/n.fps:0)*n.speed,f=Math.max(0,o);f<e-s&&(n.offset=f,e=f,n._apply(f));var c=n.iterations>0&&-1===n.fill&&o>=n.maxFiniteDuration;(o<=0||n.offset<o||c)&&n.stop(),n._id=window.requestAnimationFrame(i)}}))}},{key:"_start",value:function(){var t=this,n=arguments.length>0&&void 0!==arguments[0]?arguments[0]:0,e=-1/0,r=null,i={};this._running=!0;var u=function u(o){null==r&&(r=o);var a=Math.round((o-r)*t.speed+n),l=(t.fps?1e3/t.fps:0)*t.speed;if(a>e+l&&!t._rollingBack&&(t.offset=a,e=a,t._apply(a,i)===t._animations.length))return void t.pause(!0);t._id=window.requestAnimationFrame(u)};this._id=window.requestAnimationFrame(u)}},{key:"_pause",value:function(){this._id&&window.cancelAnimationFrame(this._id),this._running=!1}},{key:"play",value:function(){if(!this._running)return this._rollingBack?this._rollback(this.offset):this._start(this.offset)}},{key:"stop",value:function(){this._pause(),this.offset=0,this.rollbackStartOffset=0,this._rollingBack=!1,this._apply(0)}},{key:"reachedToEnd",value:function(){return this.iterations>0&&this.offset>=this.iterations*this.duration}},{key:"restart",value:function(){var t=arguments.length>0&&void 0!==arguments[0]&&arguments[0];this.stop(t),this.play(t)}},{key:"pause",value:function(){this._pause()}},{key:"reverse",value:function(){this.direction=-this.direction}}],[{key:"build",value:function(t,n){delete t.animationSettings,t.options=at(t.options,t.root,"5c7f360c"),t.animations.map((function(n){n.settings=at(n.s,t.root,"5c7f360c"),delete n.s,t.animationSettings||(t.animationSettings=n.settings)}));var e=t.version;if(!(t=rt(t,n)))return null;var r=t.options||{},i=new this(t.animations,t.animationSettings,e);return{el:t.svg,options:r,player:i}}},{key:"push",value:function(t){return this.build(t)}},{key:"init",value:function(){var t=this,n=window.__SVGATOR_PLAYER__&&window.__SVGATOR_PLAYER__["5c7f360c"];Array.isArray(n)&&n.splice(0).forEach((function(n){return t.build(n)}))}}]),t}();function ft(t){return d(t)+""}function ct(t){var n=arguments.length>1&&void 0!==arguments[1]?arguments[1]:" ";return t&&t.length?t.map(ft).join(n):""}function ht(t){if(!t)return"transparent";if(null==t.a||t.a>=1){var n=function(t){return 1===(t=parseInt(t).toString(16)).length?"0"+t:t},e=function(t){return t.charAt(0)===t.charAt(1)},r=n(t.r),i=n(t.g),u=n(t.b);return e(r)&&e(i)&&e(u)&&(r=r.charAt(0),i=i.charAt(0),u=u.charAt(0)),"#"+r+i+u}return"rgba("+t.r+","+t.g+","+t.b+","+t.a+")"}function vt(t){return t?"url(#"+t+")":"none"}!function(){for(var t=0,n=["ms","moz","webkit","o"],e=0;e<n.length&&!window.requestAnimationFrame;++e)window.requestAnimationFrame=window[n[e]+"RequestAnimationFrame"],window.cancelAnimationFrame=window[n[e]+"CancelAnimationFrame"]||window[n[e]+"CancelRequestAnimationFrame"];window.requestAnimationFrame||(window.requestAnimationFrame=function(n){var e=Date.now(),r=Math.max(0,16-(e-t)),i=window.setTimeout((function(){n(e+r)}),r);return t=e+r,i},window.cancelAnimationFrame=window.clearTimeout)}();var yt={f:null,i:function(t,n,e){return 0===t?n:1===t?e:{x:B(t,n.x,e.x),y:B(t,n.y,e.y)}},u:function(t,n){return function(e){var r=n(e);t.setAttribute("rx",ft(r.x)),t.setAttribute("ry",ft(r.y))}}},gt={f:null,i:function(t,n,e){return 0===t?n:1===t?e:{width:B(t,n.width,e.width),height:B(t,n.height,e.height)}},u:function(t,n){return function(e){var r=n(e);t.setAttribute("width",ft(r.width)),t.setAttribute("height",ft(r.height))}}};Object.freeze({M:2,L:2,Z:0,H:1,V:1,C:6,Q:4,T:2,S:4,A:7});var dt={},pt=null;function mt(t){var n=function(){if(pt)return pt;if("object"!==("undefined"==typeof document?"undefined":e(document))||!document.createElementNS)return{};var t=document.createElementNS("http://www.w3.org/2000/svg","svg");return t&&t.style?(t.style.position="absolute",t.style.opacity="0.01",t.style.zIndex="-9999",t.style.left="-9999px",t.style.width="1px",t.style.height="1px",pt={svg:t}):{}}().svg;if(!n)return function(t){return null};var r=document.createElementNS(n.namespaceURI,"path");r.setAttributeNS(null,"d",t),r.setAttributeNS(null,"fill","none"),r.setAttributeNS(null,"stroke","none"),n.appendChild(r);var i=r.getTotalLength();return function(t){var n=r.getPointAtLength(i*t);return{x:n.x,y:n.y}}}function bt(t){return dt[t]?dt[t]:dt[t]=mt(t)}function wt(t,n,e,r){if(!t||!r)return!1;var i=["M",t.x,t.y];if(n&&e&&(i.push("C"),i.push(n.x),i.push(n.y),i.push(e.x),i.push(e.y)),n?!e:e){var u=n||e;i.push("Q"),i.push(u.x),i.push(u.y)}return n||e||i.push("L"),i.push(r.x),i.push(r.y),i.join(" ")}function xt(t,n,e,r){var i=arguments.length>4&&void 0!==arguments[4]?arguments[4]:1,u=wt(t,n,e,r),o=bt(u);try{return o(i)}catch(t){return null}}function At(t,n,e){return t+(n-t)*e}function kt(t,n,e){var r=arguments.length>3&&void 0!==arguments[3]&&arguments[3],i={x:At(t.x,n.x,e),y:At(t.y,n.y,e)};return r&&(i.a=_t(t,n)),i}function _t(t,n){return Math.atan2(n.y-t.y,n.x-t.x)}function St(t,n,e,r){var i=1-r;return i*i*t+2*i*r*n+r*r*e}function Ot(t,n,e,r){return 2*(1-r)*(n-t)+2*r*(e-n)}function jt(t,n,e,r){var i=arguments.length>4&&void 0!==arguments[4]&&arguments[4],u=xt(t,n,null,e,r);return u||(u={x:St(t.x,n.x,e.x,r),y:St(t.y,n.y,e.y,r)}),i&&(u.a=Mt(t,n,e,r)),u}function Mt(t,n,e,r){return Math.atan2(Ot(t.y,n.y,e.y,r),Ot(t.x,n.x,e.x,r))}function Pt(t,n,e,r,i){var u=i*i;return i*u*(r-t+3*(n-e))+3*u*(t+e-2*n)+3*i*(n-t)+t}function Et(t,n,e,r,i){var u=1-i;return 3*(u*u*(n-t)+2*u*i*(e-n)+i*i*(r-e))}function It(t,n,e,r,i){var u=arguments.length>5&&void 0!==arguments[5]&&arguments[5],o=xt(t,n,e,r,i);return o||(o={x:Pt(t.x,n.x,e.x,r.x,i),y:Pt(t.y,n.y,e.y,r.y,i)}),u&&(o.a=Rt(t,n,e,r,i)),o}function Rt(t,n,e,r,i){return Math.atan2(Et(t.y,n.y,e.y,r.y,i),Et(t.x,n.x,e.x,r.x,i))}function Ft(t,n,e){var r=arguments.length>3&&void 0!==arguments[3]&&arguments[3];if(Tt(n)){if(qt(e))return jt(n,e.start,e,t,r)}else if(Tt(e)){if(Bt(n))return jt(n,n.end,e,t,r)}else{if(Bt(n))return qt(e)?It(n,n.end,e.start,e,t,r):jt(n,n.end,e,t,r);if(qt(e))return jt(n,e.start,e,t,r)}return kt(n,e,t,r)}function Nt(t,n,e){var r=Ft(t,n,e,!0);return r.a=function(t){return arguments.length>1&&void 0!==arguments[1]&&arguments[1]?t+Math.PI:t}(r.a)/m,r}function Tt(t){return!t.type||"corner"===t.type}function qt(t){return null!=t.start&&!Tt(t)}function Bt(t){return null!=t.end&&!Tt(t)}var Lt=new N;var Ct={f:ft,i:q},Dt={f:ft,i:L};function zt(t,n,e){return t.map((function(t){return function(t,n,e){var r=t.v;if(!r||"g"!==r.t||r.s||!r.v||!r.r)return t;var i=e.getElementById(r.r),u=i&&i.querySelectorAll("stop")||[];return r.s=r.v.map((function(t,n){var e=u[n]&&u[n].getAttribute("offset");return{c:t,o:e=d(parseInt(e)/100)}})),delete r.v,t}(t,0,e)}))}var Vt={gt:"gradientTransform",c:{x:"cx",y:"cy"},rd:"r",f:{x:"x1",y:"y1"},to:{x:"x2",y:"y2"}};function Gt(t,n,r,i,u,o,a,l){return zt(t,0,l),n=function(t,n,e){for(var r,i,u,o=t.length-1,a={},l=0;l<=o;l++)(r=t[l]).e&&(r.e=n(r.e)),r.v&&"g"===(i=r.v).t&&i.r&&(u=e.getElementById(i.r))&&(a[i.r]={e:u,s:u.querySelectorAll("stop")});return a}(t,i,l),function(i){var u=r(i,t,Yt);if(!u)return"none";if("c"===u.t)return ht(u.v);if("g"===u.t){if(!n[u.r])return vt(u.r);var o=n[u.r];return function(t,n){for(var e=t.s,r=e.length;r<n.length;r++){var i=e[e.length-1].cloneNode();i.id=Qt(i.id),t.e.appendChild(i),e=t.s=t.e.querySelectorAll("stop")}for(var u=0,o=e.length,a=n.length-1;u<o;u++)e[u].setAttribute("stop-color",ht(n[Math.min(u,a)].c)),e[u].setAttribute("offset",n[Math.min(u,a)].o)}(o,u.s),Object.keys(Vt).forEach((function(t){if(void 0!==u[t])if("object"!==e(Vt[t])){var n,r="gt"===t?(n=u[t],Array.isArray(n)?"matrix("+n.join(" ")+")":""):u[t],i=Vt[t];o.e.setAttribute(i,r)}else Object.keys(Vt[t]).forEach((function(n){if(void 0!==u[t][n]){var e=u[t][n],r=Vt[t][n];o.e.setAttribute(r,e)}}))})),vt(u.r)}return"none"}}function Yt(t,e,r){if(0===t)return e;if(1===t)return r;if(e&&r){var i=e.t;if(i===r.t)switch(e.t){case"c":return{t:i,v:z(t,e.v,r.v)};case"g":if(e.r===r.r){var u={t:i,s:$t(t,e.s,r.s),r:e.r};return e.gt&&r.gt&&(u.gt=function(t,n,e){var r=n.length;if(r!==e.length)return T(t,n,e);for(var i=new Array(r),u=0;u<r;u++)i[u]=q(t,n[u],e[u]);return i}(t,e.gt,r.gt)),e.c?(u.c=C(t,e.c,r.c),u.rd=B(t,e.rd,r.rd)):e.f&&(u.f=C(t,e.f,r.f),u.to=C(t,e.to,r.to)),u}}if("c"===e.t&&"g"===r.t||"c"===r.t&&"g"===e.t){var o="c"===e.t?e:r,a="g"===e.t?n({},e):n({},r),l=a.s.map((function(t){return{c:o.v,o:t.o}}));return a.s="c"===e.t?$t(t,l,a.s):$t(t,a.s,l),a}}return T(t,e,r)}function $t(t,n,e){if(n.length===e.length)return n.map((function(n,r){return Ut(t,n,e[r])}));for(var r=Math.max(n.length,e.length),i=[],u=0;u<r;u++){var o=Ut(t,n[Math.min(u,n.length-1)],e[Math.min(u,e.length-1)]);i.push(o)}return i}function Ut(t,n,e){return{o:L(t,n.o,e.o||0),c:z(t,n.c,e.c||{})}}function Qt(t){return t.replace(/-fill-([0-9]+)$/,(function(t,n){return"-fill-"+(+n+1)}))}var Ht={fill:Gt,"fill-opacity":Dt,stroke:Gt,"stroke-opacity":Dt,"stroke-width":Ct,"stroke-dashoffset":{f:ft,i:q},"stroke-dasharray":{f:function(t){var n=arguments.length>1&&void 0!==arguments[1]?arguments[1]:" ";return t&&t.length>0&&(t=t.map((function(t){return d(t,4)}))),ct(t,n)},i:function(t,n,e){var r,i,u,o=n.length,a=e.length;if(o!==a)if(0===o)n=V(o=a,0);else if(0===a)a=o,e=V(o,0);else{var l=(u=(r=o)*(i=a)/function(t,n){for(var e;n;)e=n,n=t%n,t=e;return t||1}(r,i))<0?-u:u;n=G(n,Math.floor(l/o)),e=G(e,Math.floor(l/a)),o=a=l}for(var s=[],f=0;f<o;f++)s.push(d(B(t,n[f],e[f])));return s}},opacity:Dt,transform:function(t,n,r,i){if(!(t=function(t,n){if(!t||"object"!==e(t))return null;var r=!1;for(var i in t)t.hasOwnProperty(i)&&(t[i]&&t[i].length?(t[i].forEach((function(t){t.e&&(t.e=n(t.e))})),r=!0):delete t[i]);return r?t:null}(t,i)))return null;var u=function(e,i,u){var o=arguments.length>3&&void 0!==arguments[3]?arguments[3]:null;return t[e]?r(i,t[e],u):n&&n[e]?n[e]:o};return n&&n.a&&t.o?function(n){var e=r(n,t.o,Nt);return Lt.recomposeSelf(e,u("r",n,q,0)+e.a,u("k",n,C),u("s",n,C),u("t",n,C)).toString()}:function(t){return Lt.recomposeSelf(u("o",t,Ft,null),u("r",t,q,0),u("k",t,C),u("s",t,C),u("t",t,C)).toString()}},r:Ct,"#size":gt,"#radius":yt,_:function(t,n){if(Array.isArray(t))for(var e=0;e<t.length;e++)this[t[e]]=n;else this[t]=n}},Jt=function(t){!function(t,n){if("function"!=typeof n&&null!==n)throw new TypeError("Super expression must either be null or a function");t.prototype=Object.create(n&&n.prototype,{constructor:{value:t,writable:!0,configurable:!0}}),n&&l(t,n)}(o,t);var n,e,i=(n=o,e=s(),function(){var t,r=a(n);if(e){var i=a(this).constructor;t=Reflect.construct(r,arguments,i)}else t=r.apply(this,arguments);return c(this,t)});function o(){return r(this,o),i.apply(this,arguments)}return u(o,null,[{key:"build",value:function(t){var n=h(a(o),"build",this).call(this,t,Ht);if(!n)return null;n.el,n.options,function(t,n,e){t.play()}(n.player)}}]),o}(st);return Jt.init(),Jt}));
(function(s,i,o,w,a,b){w[o]=w[o]||{};w[o][s]=w[o][s]||[];w[o][s].push(i);})('5c7f360c',{"root":"eCalH8uPq7r1","version":"2022-05-04","animations":[{"elements":{"eCalH8uPq7r2":{"transform":{"data":{"t":{"x":-1087.980126,"y":-1353.142213}},"keys":{"o":[{"t":0,"v":{"x":1058.961184,"y":1359.372033,"type":"corner"}},{"t":1000,"v":{"x":976.227108,"y":1166.325855,"type":"corner"}},{"t":2000,"v":{"x":1256.42768,"y":1207.692885,"type":"corner"}},{"t":3000,"v":{"x":1146.115578,"y":1373.161038,"type":"corner"}}],"r":[{"t":0,"v":0},{"t":1000,"v":-27.86973},{"t":2000,"v":21.588889},{"t":3000,"v":-0.56011}],"s":[{"t":0,"v":{"x":0.948836,"y":0.94175}},{"t":1000,"v":{"x":0.879775,"y":0.884912}},{"t":2000,"v":{"x":0.879775,"y":0.884912}},{"t":3000,"v":{"x":0.899389,"y":0.920783}}]}}}},"s":"MBDA1M2NlNzViN2M4YzTViNGM3YmNjMmMxNzUQ4ZEo4NjgzODM4MzdmMNzViN2JjYzViOGI2YTzdiY2MyYzE3NThkRFPA4NDdmNzViY2M3YjhIjNWI0YzdiY2MyUGMxMYzY3NThkODQ3Zjc1YDjliY2JmYmY3NThkODBQ3Zjc1YjRiZmM3YjhSKYzVjMWI0YzdiODc1DOGRiOUhiNGJmYzZiOYDdmNzVjNmMzYjhiOGKI3NzU4ZDg0ZDA/"}],"options":"MYDAxMDg4MmY4MDgxNmAU3ZjgxMmY0NzJmNzkU3Y0RONmU3MTJmOGE/X"},'__SVGATOR_PLAYER__',window)]]></script></svg>